<svg version="1.2" baseProfile="tiny" xmlns="http://www.w3.org/2000/svg" viewBox="-155 247 300 300"><path fill="none" d="M53.9 298.9l-.8.8c-.8.4-1.2 1.2-2 2.1l-13.5 13.6-31 31.4c-1.2 1.3-1.6 2.1-2 2.5.4.4.8 1.3 2 2.5 8.2 8.7 17.1 17.3 25.7 26.5l7.7 7.4c.8.8 1.7 1.6 2.9 2.5 1.2-1.2 2.5-2.1 3.7-3.3l43.7-44.3c.4-.8 1.2-1.2 2-2.1l1.2-1.2c2.9-2.9 7.7-2.9 10.6 0l24.1 24v-98h-98l23.7 24.8c2.8 2.9 2.8 7.8 0 10.8zM-64.5 507.2c-2.9-2.9-2.9-7.8 0-10.8l2.9-2.9 14.7-14.9c10.2-10.3 20.4-20.3 30.2-30.6 1.2-1.6 2-2.5 2.4-2.9-.4-.4-.8-1.3-2-2.5l-25.7-26-7.7-7.8c-.8-.8-1.7-1.6-2.9-2.5-1.2 1.2-2.5 2.1-3.7 3.3l-44.1 44.6c-.8.4-1.6 1.2-2.5 2.1l-1.2.8c-3.3 2.9-7.7 2.9-10.6 0l-24.1-24v98.8h97.9l-23.6-24.7z"/><path d="M9.4 253.8c-2.5 5.8 2 11.2 3.2 12.8L38 293.1l-42.1 42.6c-9 9.1-9 17.4-.4 26.5 8.6 8.7 17.2 17.8 25.7 26.5l7.7 7.4c1.2 1.2 2.9 2.9 4.5 4.1 2.9 2.1 6.1 3.3 9.4 3.3 3.3 0 6.5-1.2 9-3.3 1.6-1.2 3.3-2.9 4.9-4.6l41.6-42.2 25.3 25.2c1.2 1.2 4.9 4.1 9.4 4.1 3.7 0 9.8-2.5 9.8-12.4v-107c.4-10.3-7.3-15.7-15.1-15.7H20.8c-7.3 0-10.2 3.3-11.4 6.2zm118.8 9.5v98l-24.1-24c-2.9-2.9-7.7-2.9-10.6 0l-1.2 1.2c-.8.8-1.6 1.2-2 2.1l-43.7 44.3c-1.2 1.2-2.5 2.1-3.7 3.3-1.2-.8-2-1.6-2.9-2.5l-7.7-7.4c-8.6-9.1-17.5-17.8-25.7-26.5-1.2-1.2-1.6-2.1-2-2.5.4-.4.8-1.2 2-2.5l31-31.4L51 301.8c.8-.8 1.2-1.6 2-2.1l.8-.8c2.9-2.9 2.9-7.8 0-10.8l-23.7-24.8h98.1zM-137.5 546.5h106.9c7.3 0 10.2-3.3 11.4-6.2 2.5-5.8-2-11.2-3.3-12.8L-47.7 501l11.8-12 30.2-30.6c9-9.1 9-17.4.4-26.5-9-8.7-17.6-17.3-26.1-26l-7.7-7.8c-1.2-1.2-2.9-2.9-4.5-4.1-5.7-4.1-12.7-4.1-18.4 0-1.6 1.2-3.3 2.9-4.9 4.6l-41.6 42.1-25.3-25.2c-1.2-1.2-4.9-4.1-9.4-4.1-3.7 0-9.8 2.5-9.8 12.4v107.1c0 10.2 7.7 15.6 15.5 15.6zm-1.3-113.2l24.1 24c2.9 2.9 7.3 2.9 10.6 0l1.2-.8c.8-.8 1.6-1.6 2.5-2.1l44.1-44.6c1.2-1.2 2.5-2.1 3.7-3.3 1.2.8 2 1.6 2.9 2.5l7.7 7.8 25.7 26c1.2 1.2 1.6 2.1 2 2.5-.4.4-1.2 1.2-2.4 2.9-9.8 10.3-20 20.2-30.2 30.6l-14.7 14.9-2.9 2.9c-2.9 2.9-2.9 7.8 0 10.8l23.7 24.8h-97.9v-98.9z"/></svg>