<svg version="1.2" baseProfile="tiny" xmlns="http://www.w3.org/2000/svg" viewBox="0 0 290.7 21.7"><g fill="#6AB2DB"><path d="M11.1 21.7c-3.1 0-5.6-1-7.7-3.1C1.3 16.5.3 13.9.3 10.9s1-5.6 3.1-7.7C5.5 1 8.1 0 11.3 0c1.8 0 3.3.3 4.6.9 1.2.6 2.4 1.4 3.5 2.5l-2.8 3.2c-.9-.8-1.7-1.4-2.5-1.8-.8-.4-1.7-.6-2.9-.6-1.7.1-3.2.7-4.3 2C5.7 7.4 5.2 9 5.2 10.9c0 1.8.6 3.4 1.7 4.7 1.1 1.3 2.6 1.9 4.4 1.9 1.1 0 2.1-.2 2.9-.6.8-.4 1.7-1 2.6-1.9l2.9 3.1c-1.1 1.2-2.4 2.1-3.7 2.7-1.3.6-3 .9-4.9.9zM26 21.4V.4h9.6c2.7 0 4.7.7 6.1 2.1 1.2 1.2 1.8 2.8 1.8 4.9 0 3.2-1.5 5.4-4.5 6.5l5.1 7.5h-5.4l-4.6-6.7h-3.6v6.7H26zm4.6-10.8h4.7c1.1 0 2-.3 2.6-.8.6-.5.9-1.3.9-2.2 0-1-.3-1.7-1-2.2-.6-.5-1.5-.8-2.7-.8h-4.6v6zM68.6 18.6c-2.1 2.1-4.8 3.2-8 3.2s-5.9-1-8-3.1c-2.1-2.1-3.2-4.7-3.2-7.7s1.1-5.6 3.2-7.7c2.1-2.1 4.8-3.2 8-3.2s5.9 1 8 3.1c2.1 2.1 3.2 4.7 3.2 7.7s-1.1 5.5-3.2 7.7zm-12.5-3.1c1.2 1.3 2.7 1.9 4.6 1.9 1.8 0 3.4-.6 4.5-1.9 1.2-1.3 1.8-2.8 1.8-4.7 0-1.8-.6-3.4-1.8-4.7-1.2-1.3-2.7-1.9-4.6-1.9-1.8 0-3.4.6-4.5 1.9-1.2 1.3-1.8 2.8-1.8 4.7 0 1.9.6 3.5 1.8 4.7zM86 21.7c-3.4 0-6.4-1.1-8.9-3.4l2.7-3.3c2.1 1.7 4.1 2.6 6.3 2.6.9 0 1.7-.2 2.2-.5.5-.4.8-.9.8-1.5s-.3-1.1-.8-1.5c-.6-.4-1.7-.8-3.4-1.2-1.2-.3-2.2-.6-2.9-.9-.7-.3-1.4-.7-2.1-1.2-.7-.5-1.2-1.1-1.5-1.8-.3-.7-.5-1.6-.5-2.6 0-1.9.7-3.4 2.1-4.6C81.4.6 83.1.1 85.3.1c3 0 5.6.9 7.8 2.7l-2.4 3.5c-2-1.4-3.8-2.1-5.5-2.1-.9 0-1.5.2-2 .5s-.7.8-.7 1.3c0 .7.3 1.2.9 1.5.6.3 1.8.8 3.7 1.2 2.3.6 4 1.4 5 2.3s1.6 2.3 1.6 4c0 2-.7 3.6-2.1 4.8s-3.3 1.9-5.6 1.9zM108 21.7c-3.4 0-6.4-1.1-8.9-3.4l2.7-3.3c2.1 1.7 4.1 2.6 6.3 2.6.9 0 1.7-.2 2.2-.5.5-.4.8-.9.8-1.5s-.3-1.1-.8-1.5c-.6-.4-1.7-.8-3.4-1.2-1.2-.3-2.2-.6-2.9-.9-.7-.3-1.4-.7-2.1-1.2-.7-.5-1.2-1.1-1.5-1.8-.3-.7-.5-1.6-.5-2.6 0-1.9.7-3.4 2.1-4.6 1.4-1.2 3.1-1.7 5.3-1.7 3 0 5.6.9 7.8 2.7l-2.4 3.5c-2-1.4-3.8-2.1-5.5-2.1-.9 0-1.5.2-2 .5-.5.4-.7.8-.7 1.4 0 .7.3 1.2.9 1.5.6.3 1.8.8 3.7 1.2 2.3.6 4 1.4 5 2.3s1.6 2.3 1.6 4c0 2-.7 3.6-2.1 4.8s-3.3 1.8-5.6 1.8zM134.8 21.4V.4h16v4.2h-11.4V9h10v4.2h-10v8.1h-4.6zM157.5 21.4V.4h4.6v21h-4.6zM170.4 21.4V.4h4.3l9.8 12.9V.4h4.6v21h-3.9L174.9 8v13.4h-4.5zM195 21.4l9-21.1h4.3l9 21.1h-4.8l-1.9-4.7h-8.9l-1.9 4.7H195zm8.3-8.8h5.6l-2.8-6.8-2.8 6.8zM223.3 21.4V.4h4.3l9.8 12.9V.4h4.6v21h-4L227.8 8v13.4h-4.5zM259.8 21.7c-3.1 0-5.6-1-7.7-3.1-2.1-2.1-3.1-4.7-3.1-7.7s1-5.6 3.1-7.7S256.8 0 260 0c1.8 0 3.3.3 4.6.9 1.2.6 2.4 1.4 3.5 2.5l-2.8 3.2c-.9-.8-1.7-1.4-2.5-1.8s-1.7-.6-2.9-.6c-1.8 0-3.2.6-4.4 1.9-1.1 1.3-1.7 2.8-1.7 4.7 0 1.8.6 3.4 1.7 4.7 1.2 1.3 2.6 1.9 4.4 1.9 1.1 0 2.1-.2 2.9-.6.8-.4 1.7-1 2.6-1.9l2.9 3.1c-1.1 1.2-2.4 2.1-3.7 2.7-1.2.7-2.8 1-4.8 1zM274.7 21.4V.4h15.8v4.1h-11.3v4.3h9.9v4.1h-9.9v4.4h11.4v4.1h-15.9z"/></g></svg>