<?xml version="1.0" encoding="utf-8"?>
<!-- Generator: Adobe Illustrator 19.1.0, SVG Export Plug-In . SVG Version: 6.00 Build 0)  -->
<svg version="1.2" baseProfile="tiny" id="Layer_1" xmlns="http://www.w3.org/2000/svg" xmlns:xlink="http://www.w3.org/1999/xlink"
	 x="0px" y="0px" viewBox="0 0 290.7 21.7" xml:space="preserve">
<g>
	<path fill="#6AB2DB" d="M11.1,21.7c-3.1,0-5.6-1-7.7-3.1c-2.1-2.1-3.1-4.7-3.1-7.7c0-3,1-5.6,3.1-7.7C5.5,1,8.1,0,11.3,0
		c1.8,0,3.3,0.3,4.6,0.9c1.2,0.6,2.4,1.4,3.5,2.5l-2.8,3.2c-0.9-0.8-1.7-1.4-2.5-1.8c-0.8-0.4-1.7-0.6-2.9-0.6
		C9.5,4.3,8,4.9,6.9,6.2C5.7,7.4,5.2,9,5.2,10.9c0,1.8,0.6,3.4,1.7,4.7c1.1,1.3,2.6,1.9,4.4,1.9c1.1,0,2.1-0.2,2.9-0.6
		c0.8-0.4,1.7-1,2.6-1.9l2.9,3.1c-1.1,1.2-2.4,2.1-3.7,2.7C14.7,21.4,13,21.7,11.1,21.7z"/>
	<path fill="#6AB2DB" d="M26,21.4v-21h9.6c2.7,0,4.7,0.7,6.1,2.1c1.2,1.2,1.8,2.8,1.8,4.9c0,3.2-1.5,5.4-4.5,6.5l5.1,7.5h-5.4
		l-4.6-6.7h-3.6v6.7H26z M30.6,10.6h4.7c1.1,0,2-0.3,2.6-0.8c0.6-0.5,0.9-1.3,0.9-2.2c0-1-0.3-1.7-1-2.2c-0.6-0.5-1.5-0.8-2.7-0.8
		h-4.6V10.6z"/>
	<path fill="#6AB2DB" d="M68.6,18.6c-2.1,2.1-4.8,3.2-8,3.2c-3.2,0-5.9-1-8-3.1c-2.1-2.1-3.2-4.7-3.2-7.7c0-3,1.1-5.6,3.2-7.7
		c2.1-2.1,4.8-3.2,8-3.2s5.9,1,8,3.1c2.1,2.1,3.2,4.7,3.2,7.7C71.8,13.9,70.7,16.4,68.6,18.6z M56.1,15.5c1.2,1.3,2.7,1.9,4.6,1.9
		c1.8,0,3.4-0.6,4.5-1.9c1.2-1.3,1.8-2.8,1.8-4.7c0-1.8-0.6-3.4-1.8-4.7c-1.2-1.3-2.7-1.9-4.6-1.9c-1.8,0-3.4,0.6-4.5,1.9
		c-1.2,1.3-1.8,2.8-1.8,4.7C54.3,12.7,54.9,14.3,56.1,15.5z"/>
	<path fill="#6AB2DB" d="M86,21.7c-3.4,0-6.4-1.1-8.9-3.4l2.7-3.3c2.1,1.7,4.1,2.6,6.3,2.6c0.9,0,1.7-0.2,2.2-0.5
		c0.5-0.4,0.8-0.9,0.8-1.5c0-0.6-0.3-1.1-0.8-1.5c-0.6-0.4-1.7-0.8-3.4-1.2c-1.2-0.3-2.2-0.6-2.9-0.9c-0.7-0.3-1.4-0.7-2.1-1.2
		c-0.7-0.5-1.2-1.1-1.5-1.8c-0.3-0.7-0.5-1.6-0.5-2.6c0-1.9,0.7-3.4,2.1-4.6c1.4-1.2,3.1-1.7,5.3-1.7c3,0,5.6,0.9,7.8,2.7l-2.4,3.5
		c-2-1.4-3.8-2.1-5.5-2.1c-0.9,0-1.5,0.2-2,0.5C82.7,5,82.5,5.5,82.5,6c0,0.7,0.3,1.2,0.9,1.5c0.6,0.3,1.8,0.8,3.7,1.2
		c2.3,0.6,4,1.4,5,2.3s1.6,2.3,1.6,4c0,2-0.7,3.6-2.1,4.8S88.3,21.7,86,21.7z"/>
	<path fill="#6AB2DB" d="M108,21.7c-3.4,0-6.4-1.1-8.9-3.4l2.7-3.3c2.1,1.7,4.1,2.6,6.3,2.6c0.9,0,1.7-0.2,2.2-0.5
		c0.5-0.4,0.8-0.9,0.8-1.5c0-0.6-0.3-1.1-0.8-1.5c-0.6-0.4-1.7-0.8-3.4-1.2c-1.2-0.3-2.2-0.6-2.9-0.9c-0.7-0.3-1.4-0.7-2.1-1.2
		c-0.7-0.5-1.2-1.1-1.5-1.8c-0.3-0.7-0.5-1.6-0.5-2.6c0-1.9,0.7-3.4,2.1-4.6c1.4-1.2,3.1-1.7,5.3-1.7c3,0,5.6,0.9,7.8,2.7l-2.4,3.5
		c-2-1.4-3.8-2.1-5.5-2.1c-0.9,0-1.5,0.2-2,0.5c-0.5,0.4-0.7,0.8-0.7,1.4c0,0.7,0.3,1.2,0.9,1.5c0.6,0.3,1.8,0.8,3.7,1.2
		c2.3,0.6,4,1.4,5,2.3s1.6,2.3,1.6,4c0,2-0.7,3.6-2.1,4.8S110.3,21.7,108,21.7z"/>
	<path fill="#6AB2DB" d="M134.8,21.4v-21h16v4.2h-11.4V9h10v4.2h-10v8.1H134.8z"/>
	<path fill="#6AB2DB" d="M157.5,21.4v-21h4.6v21H157.5z"/>
	<path fill="#6AB2DB" d="M170.4,21.4v-21h4.3l9.8,12.9V0.4h4.6v21h-3.9L174.9,8v13.4H170.4z"/>
	<path fill="#6AB2DB" d="M195,21.4l9-21.1h4.3l9,21.1h-4.8l-1.9-4.7h-8.9l-1.9,4.7H195z M203.3,12.6h5.6l-2.8-6.8L203.3,12.6z"/>
	<path fill="#6AB2DB" d="M223.3,21.4v-21h4.3l9.8,12.9V0.4h4.6v21H238L227.8,8v13.4H223.3z"/>
	<path fill="#6AB2DB" d="M259.8,21.7c-3.1,0-5.6-1-7.7-3.1c-2.1-2.1-3.1-4.7-3.1-7.7c0-3,1-5.6,3.1-7.7S256.8,0,260,0
		c1.8,0,3.3,0.3,4.6,0.9c1.2,0.6,2.4,1.4,3.5,2.5l-2.8,3.2c-0.9-0.8-1.7-1.4-2.5-1.8s-1.7-0.6-2.9-0.6c-1.8,0-3.2,0.6-4.4,1.9
		c-1.1,1.3-1.7,2.8-1.7,4.7c0,1.8,0.6,3.4,1.7,4.7c1.2,1.3,2.6,1.9,4.4,1.9c1.1,0,2.1-0.2,2.9-0.6c0.8-0.4,1.7-1,2.6-1.9l2.9,3.1
		c-1.1,1.2-2.4,2.1-3.7,2.7C263.4,21.4,261.8,21.7,259.8,21.7z"/>
	<path fill="#6AB2DB" d="M274.7,21.4v-21h15.8v4.1h-11.3v4.3h9.9v4.1h-9.9v4.4h11.4v4.1H274.7z"/>
</g>
</svg>
