<?xml version="1.0" encoding="utf-8"?>
<!-- Generator: Adobe Illustrator 19.1.0, SVG Export Plug-In . SVG Version: 6.00 Build 0)  -->
<svg version="1.2" baseProfile="tiny" id="Layer_1" xmlns="http://www.w3.org/2000/svg" xmlns:xlink="http://www.w3.org/1999/xlink"
	 x="0px" y="0px" viewBox="0 0 50.1 25.6" xml:space="preserve" width="90px">
<g>
	<path fill="#8DC9EB" d="M48.6,0H31.1l0,0H31c0,0-0.1,0-0.1,0c-3.4,0.1-6.1,2.8-6.3,6.2h0v0.3v0v0v6h0c0,0.1,0,0.2,0,0.2
		c0,5.3-4.3,9.6-9.6,9.6c-5.3,0-9.6-4.3-9.6-9.6c0-5.3,4.3-9.6,9.6-9.6v0c0.8-0.1,1.4-0.7,1.4-1.6c0-0.8-0.6-1.5-1.4-1.6v0
		c0,0-0.1,0-0.1,0c0,0,0,0,0,0c0,0,0,0,0,0C7.8,0.1,2.1,5.8,2.1,12.8c0,7.1,5.7,12.8,12.8,12.8c6.5,0,11.9-4.9,12.7-11.3h8.2
		c0.9,0,1.6-0.7,1.6-1.6l0,0c0-0.9-0.7-1.6-1.6-1.6h-8.1V6.5c0-1.9,1.5-3.4,3.4-3.4l0,0h17.5c0.9,0,1.6-0.7,1.6-1.6
		C50.1,0.7,49.4,0,48.6,0L48.6,0z"/>
</g>
</svg>
