<?xml version="1.0" standalone="no"?>
<!DOCTYPE svg PUBLIC "-//W3C//DTD SVG 1.1//EN" "http://www.w3.org/Graphics/SVG/1.1/DTD/svg11.dtd" >
<svg xmlns="http://www.w3.org/2000/svg">
<metadata>Generated by IcoMoon</metadata>
<defs>
<font id="cross-finance" horiz-adv-x="1024">
<font-face units-per-em="1024" ascent="960" descent="-64" />
<missing-glyph horiz-adv-x="1024" />
<glyph unicode="&#x20;" horiz-adv-x="512" d="" />
<glyph unicode="&#xe900;" glyph-name="another-account" d="M714.667 960c6.4 0 12.8-2.133 17.067-6.4l221.867-221.867c10.667-12.8 10.667-23.467 2.133-34.133 0 0 0-2.133-2.133-2.133l-123.733-123.733c0 0 0 0-2.133-2.133v0l-96-96c-4.267-4.267-10.667-6.4-17.067-6.4s-12.8 2.133-17.067 6.4c-4.267 4.267-6.4 10.667-6.4 17.067v140.8c-76.8 12.8-147.2 4.267-211.2-25.6v0 0c-36.267-19.2-72.533-44.8-104.533-78.933-10.667-10.667-21.333-23.467-32-36.267-2.133-2.133-2.133-4.267-4.267-6.4h-104.533c0 2.133 0 4.267 0 6.4v2.133c4.267 17.067 8.533 34.133 12.8 49.067 40.533 138.667 128 224 258.133 256 0 0 0 0 2.133 0 53.333 12.8 115.2 17.067 183.467 10.667v0 0 0 125.867c0 6.4 2.133 10.667 6.4 17.067v0c6.4 6.4 10.667 8.533 17.067 8.533zM857.6 552.533c2.133-2.133 4.267-4.267 8.533-6.4 12.8-12.8 19.2-25.6 19.2-42.667v-2.133c0 0 0 0 0-2.133h-78.933l42.667 42.667c2.133 2.133 2.133 2.133 4.267 4.267l4.267 6.4zM953.6 377.6c8.533-8.533 12.8-19.2 14.933-32v-204.8c-6.4-23.467-17.067-42.667-34.133-59.733-25.6-25.6-55.467-38.4-91.733-38.4h-164.267c-36.267 0-66.133 12.8-91.733 38.4s-38.4 55.467-38.4 91.733v0c0 36.267 12.8 66.133 38.4 91.733v0c8.533 8.533 17.067 14.933 25.6 21.333 19.2 10.667 40.533 17.067 64 17.067h162.133c25.6 0 46.933-2.133 61.867-2.133 4.267 0 8.533 0 12.8 2.133s8.533 6.4 10.667 8.533c2.133 4.267 4.267 8.533 4.267 12.8v66.133c12.8-2.133 21.333-6.4 25.6-12.8zM488.533 618.667v0 0 0zM885.333 349.867c-10.667 0-21.333 0-36.267 2.133v0h-164.267c-46.933 0-87.467-14.933-121.6-46.933-2.133-2.133-4.267-4.267-6.4-6.4-36.267-36.267-53.333-78.933-53.333-128v0c0-49.067 17.067-91.733 53.333-128s78.933-53.333 128-53.333h164.267c12.8 0 23.467 0 36.267 2.133-2.133-14.933-8.533-25.6-19.2-36.267-12.8-12.8-27.733-19.2-46.933-19.2h-699.733c-17.067 0-34.133 6.4-46.933 19.2s-19.2 27.733-19.2 46.933v497.067c0 17.067 6.4 34.133 19.2 46.933s27.733 19.2 46.933 19.2h102.4c-2.133-6.4-4.267-12.8-6.4-19.2-4.267-14.933-8.533-29.867-12.8-46.933h-64c4.267-14.933 12.8-27.733 25.6-40.533 21.333-21.333 44.8-32 74.667-32h644.267v-76.8h2.133zM396.8 501.333v0c25.6 25.6 53.333 49.067 81.067 64h183.467v-66.133l-264.533 2.133c-2.133-2.133 0 0 0 0zM676.267 170.667c0 10.667-4.267 21.333-12.8 29.867s-17.067 12.8-29.867 12.8c-10.667 0-21.333-4.267-29.867-12.8s-12.8-17.067-12.8-29.867c0-12.8 4.267-21.333 12.8-29.867s17.067-12.8 29.867-12.8c10.667 0 21.333 4.267 29.867 12.8 10.667 8.533 12.8 17.067 12.8 29.867z" />
<glyph unicode="&#xe901;" glyph-name="transfer-arrow-h" d="M699.733 452.267c12.8-4.267 25.6-4.267 38.4 4.267l273.067 217.6c8.533 8.533 12.8 21.333 12.8 29.867 0 12.8-4.267 21.333-12.8 29.867l-273.067 217.6c-12.8 8.533-25.6 12.8-38.4 4.267-12.8-4.267-21.333-17.067-21.333-34.133v-85.333h-298.667c-17.067 0-34.133-17.067-34.133-34.133v-200.533c0-21.333 17.067-34.133 34.133-34.133h298.667v-85.333c0-12.8 8.533-21.333 21.333-29.867v0zM324.267 443.733c-12.8 4.267-25.6 4.267-34.133-4.267l-273.067-217.6c-12.8-8.533-17.067-21.333-17.067-29.867 0-12.8 4.267-21.333 12.8-29.867l273.067-217.6c12.8-8.533 25.6-12.8 38.4-4.267 12.8 4.267 21.333 17.067 21.333 34.133v85.333h298.667c17.067 0 34.133 17.067 34.133 34.133v200.533c0 21.333-17.067 34.133-34.133 34.133h-298.667v85.333c0 12.8-8.533 21.333-21.333 29.867v0z" />
<glyph unicode="&#xe902;" glyph-name="arrow-down" d="M512 166.4c-19.2 0-38.4 6.4-51.2 19.2l-441.6 441.6c-25.6 25.6-25.6 70.4 0 102.4 25.6 25.6 70.4 25.6 102.4 0l390.4-390.4 390.4 390.4c25.6 25.6 70.4 25.6 102.4 0 25.6-25.6 25.6-70.4 0-102.4l-441.6-441.6c-12.8-12.8-32-19.2-51.2-19.2v0z" />
<glyph unicode="&#xe903;" glyph-name="arrow-circle-down" d="M512 960c-284.444 0-512-227.556-512-512s227.556-512 512-512c284.444 0 512 227.556 512 512s-227.556 512-512 512zM750.933 396.8l-216.178-278.756c0-5.689-11.378-11.378-22.756-11.378s-22.756 5.689-28.444 11.378l-216.178 278.756c0 5.689-5.689 11.378-5.689 22.756 0 5.689 0 11.378 5.689 17.067s17.067 17.067 28.444 17.067h79.644v301.511c5.689 17.067 17.067 34.133 39.822 34.133h193.422c17.067 0 34.133-17.067 34.133-34.133v-301.511h85.333c11.378 0 22.756-5.689 28.444-22.756 5.689-11.378 5.689-22.756-5.689-34.133z" />
<glyph unicode="&#xe904;" glyph-name="refresh" d="M74.667 541.867l396.8-70.4c0 0 2.133 0 2.133 0 6.4 0 12.8 6.4 12.8 12.8 0 2.133 0 6.4-2.133 8.533l-66.133 102.4c40.533 17.067 108.8 38.4 187.733 38.4 40.533 0 81.067-6.4 117.333-19.2 34.133-10.667 78.933-40.533 117.333-76.8 27.733-25.6 53.333-53.333 76.8-81.067 6.4-6.4 10.667-12.8 17.067-19.2 2.133-2.133 6.4-4.267 10.667-4.267 2.133 0 2.133 0 4.267 0 4.267 2.133 8.533 6.4 8.533 10.667v2.133c10.667 93.867-12.8 192-61.867 270.933-53.333 83.2-140.8 142.933-243.2 170.667-40.533 10.667-83.2 14.933-128 14.933-57.6 0-117.333-8.533-174.933-27.733-32-10.667-61.867-23.467-91.733-36.267l-72.533 115.2c-4.267 4.267-8.533 6.4-14.933 6.4-4.267 0-8.533-4.267-10.667-10.667l-96-392.533c0-4.267 0-6.4 2.133-10.667 2.133-2.133 4.267-4.267 8.533-4.267v0zM957.867 349.867c-2.133 2.133-4.267 4.267-8.533 6.4l-396.8 70.4c-4.267 0-10.667-2.133-12.8-6.4s-2.133-10.667 0-14.933l68.267-102.4c-40.533-17.067-108.8-38.4-187.733-38.4-40.533 0-81.067 6.4-117.333 19.2-34.133 10.667-78.933 40.533-117.333 76.8-27.733 25.6-53.333 53.333-76.8 81.067-6.4 6.4-10.667 12.8-17.067 19.2-4.267 4.267-8.533 6.4-12.8 4.267s-8.533-6.4-8.533-10.667v-2.133c-10.667-93.867 12.8-192 61.867-270.933 53.333-83.2 140.8-142.933 243.2-170.667 40.533-10.667 83.2-14.933 128-14.933v0c57.6 0 117.333 8.533 174.933 27.733 32 10.667 61.867 23.467 91.733 36.267l74.667-115.2c2.133-4.267 6.4-6.4 10.667-6.4 0 0 2.133 0 2.133 0 4.267 0 8.533 4.267 10.667 10.667l91.733 390.4c0 4.267 0 6.4-2.133 10.667v0z" />
<glyph unicode="&#xe905;" glyph-name="bitcoin" d="M390.4 960c-12.8 0-23.467-10.667-23.467-23.467v-87.467h-128c-32 0-49.067-17.067-49.067-49.067v-704c0-32 17.067-49.067 49.067-49.067h128v-87.467c0-12.8 10.667-23.467 23.467-23.467h38.4c12.8 0 23.467 10.667 23.467 23.467v87.467h46.933v-87.467c0-12.8 10.667-23.467 23.467-23.467h38.4c12.8 0 23.467 10.667 23.467 23.467v87.467h10.667c61.867 0 110.933 19.2 147.2 44.8 36.267 27.733 61.867 64 76.8 102.4s19.2 76.8 17.067 106.667c-4.267 53.333-25.6 93.867-51.2 123.733s-53.333 42.667-68.267 46.933c17.067 6.4 36.267 23.467 49.067 49.067 14.933 25.6 25.6 57.6 25.6 89.6v0c0 49.067-10.667 85.333-25.6 113.067s-36.267 46.933-53.333 64c-36.267 29.867-78.933 49.067-125.867 57.6v89.6c0 12.8-10.667 23.467-23.467 23.467h-38.4c-12.8 0-23.467-10.667-23.467-23.467v-87.467h-46.933v87.467c0 12.8-10.667 23.467-23.467 23.467h-40.533zM381.867 665.6h155.733c42.667 0 61.867-34.133 61.867-70.4 0-21.333-10.667-36.267-23.467-46.933-14.933-10.667-32-17.067-49.067-17.067h-145.067v134.4zM381.867 366.933h170.667c46.933 0 76.8-21.333 76.8-66.133 0-46.933-32-66.133-70.4-66.133h-177.067v132.267z" />
<glyph unicode="&#xe906;" glyph-name="heart" d="M874.667 853.333c-42.667 21.333-89.6 34.133-140.8 34.133-89.6 0-170.667-42.667-221.867-106.667-51.2 64-132.267 106.667-221.867 106.667-51.2 0-98.133-12.8-140.8-34.133-89.6-51.2-149.333-145.067-149.333-251.733 0-29.867 4.267-59.733 12.8-89.6 51.2-226.133 499.2-503.467 499.2-503.467s448 281.6 499.2 503.467c8.533 25.6 12.8 55.467 12.8 89.6 0 106.667-59.733 200.533-149.333 251.733v0z" />
<glyph unicode="&#xe907;" glyph-name="bank-transfer" d="M977.067 29.867h-930.133c-25.6 0-46.933-21.333-46.933-46.933s21.333-46.933 46.933-46.933h930.133c25.6 0 46.933 21.333 46.933 46.933-2.133 25.6-21.333 46.933-46.933 46.933v0zM104.533 149.333c-25.6 0-46.933-21.333-46.933-46.933s21.333-46.933 46.933-46.933h812.8c25.6 0 46.933 21.333 46.933 46.933s-21.333 46.933-46.933 46.933h-10.667v420.267h10.667c12.8 0 23.467 10.667 23.467 23.467s-10.667 23.467-23.467 23.467h-812.8c-12.8 0-23.467-10.667-23.467-23.467s10.667-23.467 23.467-23.467h10.667v-420.267h-10.667zM812.8 569.6v-420.267h-138.667v420.267h138.667zM580.267 569.6v-420.267h-138.667v420.267h138.667zM209.067 569.6h138.667v-420.267h-138.667v420.267zM46.933 657.067h930.133c25.6 0 46.933 21.333 46.933 46.933 0 21.333-12.8 38.4-32 44.8l-460.8 206.933c-12.8 6.4-25.6 6.4-38.4 0l-465.067-209.067c-19.2-8.533-32-29.867-25.6-51.2 4.267-23.467 23.467-38.4 44.8-38.4v0z" />
<glyph unicode="&#xe908;" glyph-name="reports" d="M776.533-64c-21.333 0-42.667 17.067-42.667 38.4v947.2c0 21.333 17.067 38.4 42.667 38.4h204.8c21.333 0 42.667-17.067 42.667-38.4v-947.2c0-21.333-17.067-38.4-42.667-38.4h-204.8zM409.6-64c-21.333 0-42.667 17.067-42.667 38.4v708.267c0 21.333 17.067 38.4 42.667 38.4h204.8c21.333 0 42.667-17.067 42.667-38.4v-708.267c0-21.333-17.067-38.4-42.667-38.4h-204.8zM42.667-64c-21.333 0-42.667 17.067-42.667 38.4v473.6c0 21.333 17.067 38.4 42.667 38.4h204.8c21.333 0 42.667-17.067 42.667-38.4v-473.6c0-21.333-17.067-38.4-42.667-38.4h-204.8z" />
<glyph unicode="&#xe909;" glyph-name="calendar" d="M369.778 396.8c0 11.378-11.378 22.756-22.756 22.756h-85.333c-11.378 0-22.756-11.378-22.756-22.756v-79.644c0-11.378 11.378-22.756 22.756-22.756h85.333c11.378 0 22.756 11.378 22.756 22.756v79.644zM574.578 396.8c0 11.378-11.378 22.756-22.756 22.756h-79.644c-17.067 0-22.756-11.378-22.756-22.756v-79.644c0-11.378 11.378-22.756 22.756-22.756h85.333c11.378 0 22.756 11.378 22.756 22.756v79.644zM785.067 396.8c0 11.378-11.378 22.756-22.756 22.756h-85.333c-11.378 0-22.756-11.378-22.756-22.756v-79.644c0-11.378 11.378-22.756 22.756-22.756h85.333c11.378 0 22.756 11.378 22.756 22.756v79.644zM369.778 192c0 11.378-11.378 22.756-22.756 22.756h-85.333c-11.378 0-22.756-11.378-22.756-22.756v-79.644c0-11.378 11.378-22.756 22.756-22.756h85.333c11.378 0 22.756 11.378 22.756 22.756v79.644zM574.578 192c0 11.378-11.378 22.756-22.756 22.756h-79.644c-11.378 0-22.756-11.378-22.756-22.756v-79.644c0-11.378 11.378-22.756 22.756-22.756h85.333c11.378 0 22.756 11.378 22.756 22.756v79.644zM785.067 192c0 11.378-11.378 22.756-22.756 22.756h-85.333c-11.378 0-22.756-11.378-22.756-22.756v-79.644c0-11.378 11.378-22.756 22.756-22.756h85.333c11.378 0 22.756 11.378 22.756 22.756v79.644zM932.978 846.222v-125.156c0-56.889-45.511-102.4-102.4-102.4h-62.578c-56.889 0-102.4 45.511-102.4 102.4v125.156h-301.511v-125.156c0-56.889-45.511-102.4-102.4-102.4h-68.267c-56.889 0-102.4 45.511-102.4 102.4v125.156c-51.2 0-91.022-39.822-91.022-91.022v-722.489c0-51.2 39.822-96.711 96.711-96.711h836.267c51.2 0 96.711 39.822 96.711 91.022v728.178c-5.689 51.2-45.511 91.022-96.711 91.022v0zM904.533 72.533c0-22.756-17.067-39.822-39.822-39.822h-705.422c-22.756 0-39.822 17.067-39.822 39.822v375.467c0 22.756 17.067 39.822 39.822 39.822h699.733c22.756 0 39.822-17.067 39.822-39.822v-375.467zM193.422 686.933h62.578c17.067 0 34.133 17.067 34.133 34.133v204.8c5.689 17.067-11.378 34.133-28.444 34.133h-68.267c-17.067 0-34.133-17.067-34.133-34.133v-204.8c0-17.067 17.067-34.133 34.133-34.133v0zM762.311 686.933h62.578c17.067 0 34.133 17.067 34.133 34.133v204.8c0 17.067-17.067 34.133-34.133 34.133h-62.578c-17.067 0-34.133-17.067-34.133-34.133v-204.8c0-17.067 17.067-34.133 34.133-34.133v0z" />
<glyph unicode="&#xe90a;" glyph-name="certificate" d="M668.8 406.4l-3.2 44.8c-3.2 19.2-19.2 35.2-38.4 32l-44.8-3.2c-9.6 0-19.2 3.2-25.6 9.6l-35.2 28.8c-16 12.8-38.4 9.6-51.2-3.2l-28.8-35.2c-6.4-6.4-16-9.6-22.4-12.8l-44.8-3.2c-19.2-3.2-35.2-19.2-32-38.4l3.2-44.8c0-9.6-3.2-19.2-9.6-25.6l-28.8-35.2c-12.8-16-9.6-38.4 3.2-51.2l35.2-28.8c6.4-6.4 9.6-16 12.8-22.4l3.2-44.8c3.2-19.2 19.2-35.2 38.4-32l44.8 3.2c9.6 0 19.2-3.2 25.6-9.6l35.2-28.8c16-12.8 38.4-9.6 51.2 3.2l28.8 35.2c6.4 6.4 16 9.6 22.4 12.8l44.8 3.2c19.2 3.2 35.2 19.2 32 38.4l-3.2 44.8c0 9.6 3.2 19.2 9.6 25.6l28.8 35.2c12.8 16 9.6 38.4-3.2 51.2l-35.2 28.8c-9.6 6.4-12.8 12.8-12.8 22.4zM684.8 128v0c-9.6-3.2-16-6.4-25.6-9.6l-38.4-3.2c-3.2 0-9.6-3.2-9.6-6.4l-22.4-28.8c-6.4-6.4-12.8-12.8-22.4-16-3.2-3.2-3.2-3.2-6.4-3.2-3.2-3.2-3.2-3.2-3.2-9.6l60.8-115.2c3.2-3.2 6.4-3.2 6.4 0l35.2 83.2c3.2 3.2 3.2 6.4 9.6 3.2l89.6-16c3.2 0 6.4 3.2 3.2 6.4l-60.8 112c-3.2 3.2-6.4 3.2-9.6 3.2 0 6.4-3.2 3.2-6.4 0zM816 960h-611.2c-16 0-28.8-12.8-28.8-28.8v-806.4c0-16 12.8-28.8 28.8-28.8h118.4c6.4 0 9.6 6.4 3.2 9.6-16 16-25.6 38.4-28.8 60.8l-3.2 22.4c0 6.4-3.2 9.6-9.6 16l-16 12.8c-16 16-32 35.2-38.4 57.6-6.4 28.8 0 64 22.4 86.4l16 19.2c3.2 3.2 3.2 9.6 3.2 16l-3.2 19.2c-3.2 22.4 3.2 48 16 67.2 16 25.6 44.8 44.8 76.8 44.8l25.6 3.2c3.2 0 9.6 3.2 12.8 6.4l16 19.2c19.2 22.4 48 38.4 76.8 38.4 22.4 0 44.8-9.6 64-22.4l19.2-16c3.2-3.2 9.6-3.2 16-3.2l22.4 3.2c3.2 0 9.6 0 12.8 0 51.2-3.2 92.8-41.6 99.2-89.6l3.2-22.4c0-3.2 3.2-9.6 6.4-12.8l16-12.8c16-16 32-35.2 38.4-57.6 6.4-28.8 0-64-22.4-86.4l-16-19.2c-3.2-3.2-3.2-9.6-3.2-16l3.2-22.4c0-6.4 0-16 0-22.4 0-3.2 0-9.6 3.2-16 9.6-19.2 38.4-70.4 38.4-70.4 3.2-3.2 6.4-6.4 9.6-6.4h9.6c16 0 28.8 12.8 28.8 28.8v800c6.4 16-9.6 28.8-25.6 28.8zM745.6 652.8h-470.4c-16 0-32 16-32 32s16 32 32 32h467.2c16 0 32-16 32-32 3.2-16-12.8-32-28.8-32zM745.6 816h-470.4c-16 0-32 16-32 32s16 32 32 32h467.2c16 0 32-16 32-32s-12.8-32-28.8-32z" />
<glyph unicode="&#xe90b;" glyph-name="check-mark" d="M460.8 115.2c-42.667-42.667-119.467-42.667-162.133 0l-256 256c-42.667 42.667-42.667 119.467 0 162.133s119.467 42.667 162.133 0l153.6-153.6c8.533-8.533 34.133-8.533 42.667 0l418.133 418.133c42.667 42.667 119.467 42.667 162.133 0 25.6-25.6 34.133-51.2 34.133-85.333s-8.533-59.733-34.133-85.333l-520.533-512z" />
<glyph unicode="&#xe90c;" glyph-name="check-mark-rounded" d="M512 960c-284.444 0-512-227.556-512-512s227.556-512 512-512 512 227.556 512 512-227.556 512-512 512zM824.889 573.156l-347.022-347.022c-28.444-28.444-79.644-28.444-113.778 0l-170.667 170.667c-17.067 17.067-22.756 34.133-22.756 56.889s5.689 39.822 22.756 56.889c28.444 28.444 79.644 28.444 108.089 0l102.4-102.4c5.689-5.689 22.756-5.689 28.444 0l278.756 278.756c17.067 17.067 34.133 22.756 56.889 22.756s39.822-5.689 56.889-22.756c17.067-17.067 22.756-34.133 22.756-56.889s-11.378-39.822-22.756-56.889z" />
<glyph unicode="&#xe90d;" glyph-name="arrow-up" d="M512 729.6c19.2 0 38.4-6.4 51.2-19.2l441.6-441.6c25.6-25.6 25.6-70.4 0-102.4-25.6-25.6-70.4-25.6-102.4 0l-390.4 390.4-390.4-390.4c-25.6-25.6-70.4-25.6-102.4 0-25.6 25.6-25.6 70.4 0 102.4l441.6 441.6c12.8 12.8 32 19.2 51.2 19.2v0z" />
<glyph unicode="&#xe90e;" glyph-name="clip" d="M968.533 861.867c-38.4 38.4-85.333 55.467-136.533 55.467s-98.133-21.333-136.533-55.467l-516.267-516.267c-21.333-21.333-29.867-51.2-29.867-85.333s12.8-68.267 38.4-89.6c25.6-25.6 55.467-38.4 89.6-38.4s68.267 12.8 89.6 38.4l332.8 337.067c0 0 17.067 12.8 4.267 29.867-4.267 4.267-12.8 12.8-17.067 17.067-12.8 8.533-25.6-4.267-25.6-4.267l-332.8-337.067c-12.8-12.8-29.867-21.333-46.933-21.333s-34.133 8.533-46.933 21.333c-17.067 12.8-21.333 29.867-21.333 51.2 0 17.067 8.533 34.133 21.333 46.933l503.467 507.733c25.6 25.6 59.733 38.4 93.867 38.4s68.267-12.8 93.867-38.4c25.6-25.6 38.4-59.733 38.4-93.867s-12.8-68.267-38.4-93.867l-537.6-537.6c-38.4-38.4-85.333-55.467-136.533-55.467s-98.133 21.333-136.533 55.467c-38.4 38.4-55.467 85.333-55.467 136.533s21.333 98.133 55.467 136.533l294.4 298.667c0 0 12.8 12.8 0 25.6 0 8.533-12.8 21.333-17.067 25.6-12.8 8.533-21.333-4.267-21.333-4.267l-294.4-298.667c-51.2-46.933-76.8-110.933-76.8-179.2s25.6-132.267 72.533-179.2c51.2-46.933 115.2-76.8 183.467-76.8s132.267 25.6 179.2 72.533l533.333 537.6c38.4 38.4 55.467 85.333 55.467 136.533s-21.333 98.133-55.467 136.533v0z" />
<glyph unicode="&#xe90f;" glyph-name="delete" d="M674.133 456.533l298.667 298.667c51.2 51.2 51.2 119.467 0 170.667s-128 51.2-170.667 0l-298.667-298.667-298.667 298.667c-51.2 51.2-128 51.2-170.667 0-51.2-51.2-51.2-119.467 0-170.667l298.667-298.667-298.667-298.667c-51.2-51.2-51.2-119.467 0-170.667 25.6-25.6 51.2-34.133 85.333-34.133s59.733 8.533 85.333 34.133l298.667 298.667 298.667-298.667c25.6-25.6 51.2-34.133 85.333-34.133s59.733 8.533 85.333 34.133c51.2 51.2 51.2 119.467 0 170.667l-298.667 298.667z" />
<glyph unicode="&#xe910;" glyph-name="edit" d="M8.533 29.867c-8.533-25.6-8.533-51.2 17.067-76.8 17.067-17.067 42.667-17.067 68.267-8.533l247.467 102.4-230.4 230.4-102.4-247.467zM998.4 772.267l-170.667 170.667c-17.067 25.6-59.733 25.6-85.333 0l-571.733-571.733c0 0 0 0 0 0l264.533-264.533c0 0 0 0 0 0l571.733 571.733c17.067 25.6 17.067 68.267-8.533 93.867v0z" />
<glyph unicode="&#xe911;" glyph-name="eur" d="M512 960c-284.444 0-512-227.556-512-512s227.556-512 512-512 512 227.556 512 512-227.556 512-512 512zM699.733 248.889l-17.067-11.378c-45.511-39.822-102.4-68.267-164.978-68.267-56.889 0-108.089 17.067-153.6 56.889-34.133 28.444-62.578 73.956-79.644 119.467h-45.511c-5.689 0-11.378 5.689-11.378 11.378v73.956c0 5.689 5.689 11.378 11.378 11.378h22.756c0 5.689 0 5.689 0 11.378s0 5.689 0 11.378h-22.756c-5.689 0-11.378 5.689-11.378 11.378v73.956c0 5.689 5.689 11.378 11.378 11.378h45.511c17.067 45.511 45.511 91.022 79.644 119.467 45.511 34.133 96.711 56.889 153.6 56.889s108.089-17.067 147.911-51.2l17.067-11.378 5.689-5.689v-5.689l-45.511-56.889c-5.689-5.689-11.378-5.689-11.378 0l-17.067 11.378c-28.444 22.756-56.889 34.133-91.022 34.133-56.889 0-108.089-34.133-136.533-85.333h199.111c5.689 0 11.378-5.689 11.378-11.378v-73.956c0-5.689-5.689-11.378-11.378-11.378h-227.556c0-5.689 0-5.689 0-11.378s0-5.689 0-11.378h227.556c5.689 0 11.378-5.689 11.378-11.378v-73.956c0-5.689-5.689-11.378-11.378-11.378h-199.111c28.444-51.2 79.644-85.333 136.533-85.333 34.133 0 73.956 17.067 102.4 39.822l17.067 11.378h5.689c0 0 5.689 0 5.689-5.689l51.2-51.2c0 0 0-5.689-5.689-11.378z" />
<glyph unicode="&#xe912;" glyph-name="gift" d="M452.267 392.533h-345.6c-25.6 0-51.2-21.333-51.2-46.933v-358.4c0-25.6 21.333-46.933 51.2-46.933h349.867c12.8 0 12.8 12.8 12.8 12.8v426.667c0-4.267 0 12.8-17.067 12.8v0zM917.333 392.533h-345.6c-21.333 0-17.067-21.333-17.067-21.333v-422.4c0 0 0-12.8 12.8-12.8h349.867c25.6 0 51.2 21.333 51.2 46.933v358.4c0 29.867-21.333 51.2-51.2 51.2v0zM469.333 674.133c0 0 0 17.067-17.067 17.067h-401.067c-29.867 0-51.2-21.333-51.2-46.933v-149.333c0-25.6 21.333-46.933 51.2-46.933h405.333c17.067 0 17.067 12.8 17.067 12.8v213.333zM972.8 691.2h-405.333c-12.8 0-12.8-12.8-12.8-12.8v-217.6c0 0 0-12.8 17.067-12.8h401.067c25.6 0 51.2 21.333 51.2 46.933v149.333c0 25.6-21.333 46.933-51.2 46.933v0zM298.667 725.333c-21.333 0-42.667 0-64 4.267-42.667 8.533-72.533 25.6-93.867 55.467-17.067 21.333-21.333 51.2-17.067 85.333 12.8 55.467 55.467 89.6 115.2 89.6 12.8 0 29.867 0 42.667-4.267 38.4-8.533 89.6-29.867 136.533-59.733 76.8-46.933 81.067-81.067 76.8-98.133-4.267-25.6-34.133-46.933-81.067-59.733-34.133-8.533-76.8-12.8-115.2-12.8v0zM238.933 883.2c-21.333 0-29.867-8.533-34.133-29.867-4.267-17.067 0-25.6 4.267-25.6 4.267-8.533 21.333-17.067 42.667-21.333 17.067-4.267 29.867-4.267 46.933-4.267 38.4 0 72.533 4.267 93.867 12.8 0 0 4.267 4.267 0 4.267-29.867 21.333-81.067 55.467-128 64-4.267 0-17.067 0-25.6 0v0zM725.333 725.333v0c-38.4 0-81.067 4.267-110.933 12.8-51.2 12.8-76.8 34.133-81.067 59.733-4.267 17.067 0 51.2 76.8 98.133 46.933 29.867 93.867 51.2 136.533 59.733 8.533 4.267 25.6 4.267 38.4 4.267 64 0 102.4-34.133 115.2-89.6 8.533-34.133 0-64-17.067-85.333-21.333-25.6-51.2-42.667-98.133-51.2-17.067-4.267-38.4-8.533-59.733-8.533v0zM631.467 819.2c-4.267 0-4.267-4.267 0 0 21.333-8.533 55.467-17.067 93.867-17.067 17.067 0 34.133 0 46.933 4.267 25.6 4.267 42.667 12.8 46.933 21.333 0 0 4.267 8.533 4.267 25.6-8.533 21.333-12.8 29.867-38.4 29.867-8.533 0-17.067 0-29.867-4.267-42.667-8.533-98.133-38.4-123.733-59.733v0z" />
<glyph unicode="&#xe913;" glyph-name="graphic" d="M464 928c0 9.6-3.2 19.2-12.8 25.6-6.4 6.4-16 6.4-25.6 6.4-80-16-156.8-48-217.6-96-9.6-6.4-16-12.8-16-22.4s3.2-19.2 9.6-25.6l169.6-169.6c9.6-9.6 25.6-12.8 38.4-6.4 9.6 6.4 19.2 9.6 28.8 12.8 12.8 3.2 22.4 16 22.4 32v243.2zM566.4 684.8c0-12.8 9.6-25.6 22.4-32 57.6-22.4 105.6-67.2 128-128 3.2-12.8 16-22.4 32-22.4h243.2c9.6 0 19.2 3.2 25.6 12.8 6.4 6.4 9.6 16 6.4 25.6-38.4 214.4-204.8 380.8-416 419.2-9.6 3.2-19.2 0-25.6-6.4s-12.8-16-12.8-25.6v-243.2zM745.6 400c-12.8 0-25.6-9.6-32-22.4-28.8-80-108.8-140.8-201.6-140.8-118.4 0-214.4 96-214.4 214.4 0 25.6 3.2 51.2 12.8 73.6 3.2 12.8 0 25.6-6.4 35.2l-169.6 176c-9.6 6.4-19.2 9.6-28.8 9.6s-19.2-6.4-22.4-16c-54.4-80-83.2-176-83.2-278.4 0-284.8 230.4-515.2 515.2-515.2 252.8 0 464 182.4 508.8 425.6 3.2 9.6 0 19.2-6.4 25.6s-16 12.8-25.6 12.8h-246.4z" />
<glyph unicode="&#xe914;" glyph-name="arrow-left" d="M230.4 448c0 19.2 6.4 38.4 19.2 51.2l441.6 441.6c25.6 25.6 70.4 25.6 102.4 0 25.6-25.6 25.6-70.4 0-102.4l-390.4-390.4 390.4-390.4c25.6-25.6 25.6-70.4 0-102.4-25.6-25.6-70.4-25.6-102.4 0l-441.6 441.6c-12.8 12.8-19.2 32-19.2 51.2v0z" />
<glyph unicode="&#xe915;" glyph-name="home" d="M1006.933 494.933l-153.6 153.6v179.2c0 34.133-25.6 59.733-59.733 59.733s-59.733-25.6-59.733-59.733v-59.733l-115.2 115.2c-55.467 55.467-157.867 55.467-213.333 0l-388.267-388.267c-21.333-21.333-21.333-59.733 0-81.067s59.733-21.333 81.067 0l388.267 388.267c12.8 12.8 34.133 12.8 46.933 0l388.267-388.267c12.8-12.8 25.6-17.067 42.667-17.067s29.867 4.267 42.667 17.067c21.333 21.333 21.333 59.733 0 81.067v0zM533.333 686.933c-12.8 12.8-29.867 12.8-42.667 0l-341.333-341.333c-4.267-4.267-8.533-12.8-8.533-21.333v-247.467c0-59.733 46.933-106.667 106.667-106.667h170.667v264.533h192v-260.267h170.667c59.733 0 106.667 46.933 106.667 106.667v247.467c0 8.533-4.267 17.067-8.533 21.333l-345.6 337.067z" />
<glyph unicode="&#xe916;" glyph-name="identity" d="M546.133 55.467c-21.333-4.267-85.333-46.933-136.533-81.067-8.533-8.533-21.333-12.8-29.867-21.333 34.133-8.533 64-12.8 98.133-17.067 21.333 12.8 34.133 17.067 46.933 21.333 17.067 4.267 34.133-4.267 59.733-17.067 38.4 4.267 72.533 12.8 106.667 29.867-12.8 8.533-25.6 17.067-38.4 29.867-42.667 25.6-89.6 55.467-106.667 55.467v0zM1011.2 448c0 281.6-226.133 512-507.733 512-277.333 0-503.467-230.4-503.467-512 0-166.4 81.067-315.733 200.533-409.6 93.867 42.667 213.333 119.467 260.267 149.333 106.667 68.267 174.933 136.533 200.533 196.267 12.8 29.867 12.8 59.733 4.267 85.333-8.533 17.067-25.6 34.133-51.2 38.4-42.667 12.8-93.867-25.6-132.267-68.267 0 0-89.6-93.867-183.467-153.6-4.267 0-72.533-42.667-145.067-64-12.8-4.267-25.6 4.267-25.6 17.067-4.267 12.8 4.267 25.6 17.067 25.6 68.267 17.067 132.267 59.733 132.267 59.733 89.6 55.467 174.933 145.067 174.933 145.067 59.733 68.267 123.733 98.133 179.2 81.067 38.4-12.8 64-34.133 76.8-64 17.067-34.133 17.067-76.8 0-119.467-34.133-85.333-136.533-166.4-217.6-217.6-46.933-29.867-153.6-98.133-243.2-140.8 25.6-17.067 51.2-29.867 76.8-38.4 17.067 12.8 38.4 25.6 59.733 38.4 76.8 51.2 128 85.333 153.6 89.6 38.4 8.533 81.067-25.6 136.533-64 21.333-17.067 42.667-29.867 64-42.667 162.133 85.333 273.067 256 273.067 456.533v0zM153.6 145.067c0 0 0 0 0 0 46.933 17.067 285.867 106.667 418.133 294.4 8.533 8.533 21.333 12.8 29.867 4.267s12.8-21.333 4.267-29.867c-136.533-200.533-388.267-294.4-435.2-311.467v0c-4.267 0-4.267 0-8.533 0-8.533 0-17.067 4.267-21.333 12.8-4.267 12.8 4.267 25.6 12.8 29.867v0zM546.133 610.133c-4.267 0-8.533 0-12.8 0-21.333-4.267-38.4-8.533-51.2-17.067-17.067-8.533-34.133-21.333-51.2-29.867 0 0-4.267-4.267-4.267-4.267s-4.267-4.267-4.267-4.267c-4.267-8.533-8.533-12.8-12.8-12.8-8.533-4.267-12.8-12.8-17.067-17.067-12.8-12.8-21.333-21.333-29.867-34.133-25.6-29.867-51.2-59.733-81.067-81.067-17.067-12.8-34.133-21.333-51.2-29.867-21.333-12.8-42.667-25.6-64-29.867-12.8-4.267-25.6 4.267-25.6 17.067-4.267 12.8 4.267 25.6 17.067 29.867 8.533 4.267 12.8 4.267 21.333 8.533 21.333 8.533 38.4 21.333 55.467 29.867s29.867 21.333 46.933 34.133c12.8 12.8 29.867 25.6 42.667 42.667 8.533 12.8 17.067 25.6 29.867 34.133 51.2 59.733 123.733 110.933 204.8 119.467 12.8 0 21.333-12.8 21.333-21.333-8.533-25.6-21.333-34.133-34.133-34.133v0zM520.533 708.267c-153.6 8.533-260.267-136.533-302.933-196.267l-4.267-8.533c-12.8-17.067-25.6-29.867-34.133-34.133-21.333-17.067-25.6-17.067-34.133-12.8-8.533 0-17.067 8.533-17.067 17.067s0 17.067 8.533 21.333c0 0 4.267 4.267 4.267 4.267 4.267 4.267 21.333 12.8 34.133 34.133l4.267 8.533c51.2 68.267 166.4 221.867 341.333 213.333 0 0 0 0 0 0 93.867-8.533 174.933-55.467 230.4-145.067 42.667-68.267 64-140.8 68.267-170.667 0-4.267 0-4.267 0-8.533 0 0 0-4.267 0-4.267 4.267-21.333 12.8-46.933 17.067-51.2 8.533-8.533 12.8-21.333 4.267-29.867-4.267-4.267-12.8-8.533-17.067-8.533s-8.533 0-12.8 4.267c-17.067 12.8-25.6 46.933-34.133 76.8 0 4.267 0 4.267-4.267 12.8-34.133 170.667-123.733 264.533-251.733 277.333v0zM789.333 51.2c-68.267 21.333-128 72.533-153.6 136.533-4.267 12.8 4.267 25.6 17.067 29.867s21.333-4.267 25.6-17.067c12.8-34.133 42.667-64 76.8-85.333 17.067-8.533 29.867-17.067 46.933-21.333 25.6-8.533 12.8-51.2-12.8-42.667v0zM849.067 183.467c-8.533-12.8-21.333-12.8-29.867-8.533-51.2 21.333-93.867 55.467-102.4 110.933-4.267 29.867 38.4 42.667 42.667 12.8 4.267-21.333 12.8-42.667 29.867-55.467s34.133-21.333 55.467-29.867c8.533-4.267 12.8-21.333 4.267-29.867v0z" />
<glyph unicode="&#xe917;" glyph-name="eye-invisible" d="M722.489 374.044c28.444 45.511 45.511 91.022 45.511 142.222 0 17.067 0 28.444-5.689 45.511l-159.289-284.444c51.2 22.756 91.022 56.889 119.467 96.711v0zM745.244 772.267c0 0 0 0 0 0 0 11.378 0 17.067-11.378 22.756 0 0-5.689 5.689-11.378 5.689-5.689 5.689-11.378 5.689-17.067 11.378s-11.378 5.689-17.067 11.378c-5.689 5.689-11.378 5.689-17.067 11.378-5.689 0-5.689 5.689-11.378 5.689s-11.378-5.689-17.067-11.378l-28.444-56.889c-34.133 0-68.267 5.689-102.4 5.689-102.4 0-199.111-28.444-284.444-79.644s-159.289-119.467-216.178-210.489c-5.689-11.378-11.378-22.756-11.378-39.822s5.689-28.444 11.378-39.822c34.133-51.2 73.956-96.711 119.467-142.222 45.511-39.822 96.711-73.956 147.911-96.711-17.067-28.444-22.756-45.511-22.756-51.2s5.689-11.378 11.378-17.067c45.511-28.444 73.956-39.822 73.956-39.822 5.689 0 11.378 5.689 17.067 11.378l28.444 51.2c39.822 73.956 96.711 182.044 182.044 324.267 79.644 142.222 136.533 250.311 176.356 324.267v0zM318.578 231.822c-102.4 45.511-182.044 119.467-244.622 216.178 56.889 91.022 130.844 159.289 216.178 199.111-22.756-39.822-34.133-79.644-34.133-125.156 0-39.822 11.378-79.644 28.444-113.778s45.511-68.267 79.644-91.022l-45.511-85.333zM529.067 647.111c-5.689-5.689-11.378-5.689-17.067-5.689-34.133 0-62.578-11.378-85.333-34.133s-34.133-51.2-34.133-85.333c0-5.689 0-11.378-5.689-17.067-5.689-11.378-11.378-11.378-22.756-11.378-5.689 0-11.378 0-17.067 5.689s-11.378 17.067-11.378 22.756c0 45.511 17.067 91.022 51.2 125.156 34.133 28.444 79.644 45.511 125.156 45.511 5.689 0 11.378 0 17.067-5.689s11.378-11.378 11.378-17.067c0-11.378-5.689-17.067-11.378-22.756v0zM1012.622 487.822c-22.756 34.133-51.2 73.956-85.333 102.4-34.133 34.133-68.267 62.578-102.4 85.333l-34.133-56.889c62.578-45.511 119.467-102.4 159.289-170.667-45.511-73.956-102.4-130.844-170.667-176.356s-142.222-73.956-221.867-79.644l-45.511-73.956c85.333 0 164.978 17.067 238.933 56.889 73.956 34.133 142.222 85.333 199.111 153.6 28.444 28.444 45.511 56.889 62.578 85.333 5.689 5.689 11.378 22.756 11.378 34.133s-5.689 28.444-11.378 39.822v0z" />
<glyph unicode="&#xe918;" glyph-name="key" horiz-adv-x="1007" d="M917.333 870.4c-55.467 55.467-132.267 89.6-213.333 89.6s-157.867-29.867-213.333-89.6c-85.333-85.333-110.933-204.8-68.267-315.733l-405.333-405.333c-4.267-4.267-8.533-12.8-8.533-17.067l-8.533-72.533c0-8.533 4.267-17.067 8.533-21.333l4.267-4.267 409.6 409.6c12.8 12.8 29.867 12.8 38.4 0 12.8-12.8 12.8-29.867 0-38.4l-409.6-409.6 42.667-42.667c4.267-4.267 12.8-8.533 17.067-8.533l38.4-4.267c0 0 0 0 4.267 0 8.533 0 12.8 4.267 21.333 8.533l68.267 68.267c4.267 4.267 8.533 12.8 8.533 21.333v12.8h12.8c8.533 0 12.8 4.267 21.333 8.533l12.8 12.8c4.267 4.267 8.533 12.8 8.533 21.333v55.467h55.467c8.533 0 12.8 4.267 21.333 8.533l46.933 46.933c4.267 4.267 8.533 12.8 8.533 21.333v8.533h8.533c8.533 0 12.8 4.267 21.333 8.533l42.667 42.667c4.267 4.267 8.533 12.8 8.533 21.333v12.8h17.067c8.533 0 12.8 4.267 21.333 8.533l46.933 46.933c34.133-12.8 68.267-17.067 102.4-17.067 81.067 0 157.867 29.867 213.333 89.6 115.2 115.2 115.2 307.2-4.267 422.4v0zM853.333 695.467c-17.067-17.067-34.133-25.6-55.467-25.6s-42.667 8.533-55.467 25.6c-29.867 29.867-29.867 81.067 0 115.2 12.8 12.8 34.133 21.333 55.467 21.333s42.667-8.533 55.467-25.6c34.133-29.867 34.133-81.067 0-110.933v0z" />
<glyph unicode="&#xe919;" glyph-name="language" d="M994.133 68.267l-170.667 426.667c-8.533 21.333-12.8 38.4-21.333 51.2s-12.8 25.6-21.333 34.133c-8.533 12.8-17.067 21.333-29.867 25.6-12.8 8.533-29.867 8.533-46.933 8.533s-34.133-4.267-46.933-8.533-21.333-17.067-29.867-25.6c-8.533-12.8-12.8-25.6-21.333-42.667s-12.8-34.133-17.067-42.667l-72.533-183.467c-34.133 12.8-64 29.867-85.333 55.467 72.533 59.733 123.733 153.6 123.733 260.267v46.933h192c34.133 0 64 29.867 64 64s-29.867 64-64 64h-192v98.133c0 34.133-29.867 64-64 64s-64-29.867-64-64v-98.133h-358.4c-34.133 0-64-29.867-64-64s29.867-64 64-64h358.4v-46.933c0-51.2-17.067-98.133-51.2-136.533 0 8.533 0 12.8 0 21.333 0 34.133-29.867 64-64 64s-64-29.867-64-64c0-29.867 4.267-59.733 12.8-89.6-12.8-4.267-25.6-4.267-42.667-4.267-34.133 0-64-29.867-64-64s29.867-64 64-64c34.133 0 68.267 4.267 98.133 17.067 38.4-51.2 93.867-89.6 153.6-110.933l-51.2-128c-8.533-17.067-12.8-29.867-12.8-38.4-4.267-8.533-4.267-17.067-4.267-29.867 0-17.067 8.533-29.867 21.333-42.667s29.867-17.067 42.667-17.067c21.333 0 34.133 4.267 42.667 17.067s21.333 34.133 29.867 68.267l29.867 85.333h268.8l29.867-81.067c4.267-8.533 8.533-21.333 17.067-34.133 4.267-12.8 12.8-21.333 17.067-29.867s12.8-12.8 17.067-17.067c8.533-4.267 17.067-4.267 25.6-4.267 17.067 0 34.133 4.267 46.933 17.067s17.067 25.6 17.067 42.667c8.533 8.533 4.267 29.867-12.8 64zM610.133 204.8l98.133 273.067 98.133-273.067h-196.267z" />
<glyph unicode="&#xe91a;" glyph-name="info-notification" d="M512 960c-284.077 0-512-227.923-512-512s227.923-512 512-512c284.077 0 512 227.923 512 512s-227.923 512-512 512v0zM617.703 167.226c-26.426-9.91-46.245-19.819-62.761-23.123-16.516-6.606-33.032-9.91-56.155-9.91-33.032 0-56.155 6.606-75.974 23.123-16.516 16.516-26.426 36.335-26.426 59.458 0 9.91 0 19.819 3.303 29.729 0 9.91 3.303 19.819 6.606 33.032l33.032 115.613c3.303 9.91 6.606 23.123 6.606 33.032 3.303 9.91 3.303 19.819 3.303 26.426 0 13.213-3.303 26.426-9.91 29.729-6.606 6.606-16.516 9.91-36.335 9.91-9.91 0-16.516 0-26.426-3.303s-16.516-6.606-23.123-6.606l9.91 36.335c23.123 9.91 42.942 16.516 62.761 23.123s39.639 9.91 56.155 9.91c33.032 0 56.155-6.606 72.671-23.123s26.426-36.335 26.426-59.458c0-6.606 0-13.213-3.303-26.426 0-13.213-3.303-23.123-6.606-36.335l-33.032-115.613c-3.303-9.91-6.606-19.819-6.606-33.032-3.303-13.213-3.303-19.819-3.303-26.426 0-16.516 3.303-26.426 9.91-33.032s19.819-9.91 36.335-9.91c6.606 0 16.516 0 26.426 3.303s16.516 6.606 23.123 6.606l-6.606-33.032zM614.4 636.284c-16.516-13.213-33.032-19.819-56.155-19.819-19.819 0-39.639 6.606-56.155 19.819s-23.123 33.032-23.123 52.852c0 19.819 6.606 36.335 23.123 52.852 16.516 13.213 33.032 19.819 56.155 19.819s39.639-6.606 56.155-19.819c16.516-13.213 23.123-33.032 23.123-52.852-3.303-19.819-9.91-36.335-23.123-52.852v0z" />
<glyph unicode="&#xe91b;" glyph-name="mass-payment" d="M309.333 398.933l-174.933-174.933-49.067 46.933c-8.533 8.533-19.2 10.667-29.867 6.4s-17.067-12.8-19.2-23.467l-36.267-285.867c-2.133-8.533 2.133-17.067 8.533-23.467s14.933-8.533 23.467-8.533l285.867 36.267c10.667 2.133 19.2 8.533 23.467 19.2s0 21.333-6.4 29.867l-46.933 46.933 174.933 174.933c10.667 10.667 10.667 29.867 0 40.533l-113.067 113.067c-12.8 12.8-29.867 12.8-40.533 2.133zM561.067 245.333l174.933-174.933-46.933-49.067c-8.533-8.533-10.667-19.2-6.4-29.867s12.8-17.067 23.467-19.2l285.867-36.267c8.533-2.133 17.067 2.133 23.467 8.533s8.533 14.933 8.533 23.467l-36.267 285.867c-2.133 10.667-8.533 19.2-19.2 23.467s-21.333 0-29.867-6.4l-46.933-46.933-174.933 174.933c-10.667 10.667-29.867 10.667-40.533 0l-113.067-113.067c-12.8-12.8-12.8-29.867-2.133-40.533zM714.667 497.067l174.933 174.933 46.933-46.933c8.533-8.533 19.2-10.667 29.867-6.4s17.067 12.8 19.2 23.467l38.4 285.867c2.133 8.533-2.133 17.067-8.533 23.467s-14.933 8.533-23.467 8.533l-285.867-36.267c-10.667-2.133-19.2-8.533-23.467-19.2s0-21.333 6.4-29.867l46.933-46.933-174.933-174.933c-10.667-10.667-10.667-29.867 0-40.533l113.067-113.067c12.8-12.8 29.867-12.8 40.533-2.133zM462.933 650.667l-174.933 174.933 46.933 49.067c8.533 8.533 10.667 19.2 6.4 29.867s-12.8 17.067-23.467 19.2l-285.867 36.267c-8.533 0-17.067-2.133-23.467-8.533s-8.533-14.933-8.533-23.467l36.267-285.867c2.133-10.667 8.533-19.2 19.2-23.467s21.333 0 29.867 6.4l46.933 46.933 174.933-174.933c10.667-10.667 29.867-10.667 40.533 0l113.067 113.067c12.8 12.8 12.8 29.867 2.133 40.533z" />
<glyph unicode="&#xe91c;" glyph-name="mastercard" d="M0 157.867c0-42.667 42.667-85.333 85.333-85.333h861.867c42.667 0 76.8 38.4 76.8 85.333v68.267h-1024v-68.267zM947.2 823.467h-861.867c-46.933 0-85.333-34.133-85.333-76.8v-409.6h1024v405.333c0 46.933-34.133 81.067-76.8 81.067v0zM819.2 439.467c-38.4 0-72.533 17.067-98.133 38.4-25.6-25.6-59.733-38.4-98.133-38.4-76.8 0-140.8 64-140.8 140.8s64 140.8 140.8 140.8c38.4 0 72.533-17.067 98.133-38.4 25.6 25.6 59.733 38.4 98.133 38.4 76.8 0 140.8-64 140.8-140.8-4.267-76.8-64-140.8-140.8-140.8v0z" />
<glyph unicode="&#xe91d;" glyph-name="wallet" d="M960 482.133v93.867c0 34.133-29.867 64-64 64h-704c-34.133 0-64 29.867-64 64s29.867 64 64 64h704c34.133 0 64 29.867 64 64s-29.867 64-64 64h-704c-106.667 0-192-85.333-192-192v-576c0-72.533 55.467-128 128-128h768c34.133 0 64 29.867 64 64v98.133c34.133 0 64 29.867 64 64v192c0 34.133-29.867 64-64 64v0zM866.133 256c-34.133 0-64 29.867-64 64s29.867 64 64 64c34.133 0 64-29.867 64-64-4.267-34.133-29.867-64-64-64v0z" />
<glyph unicode="&#xe91e;" glyph-name="mail" d="M1024 764.8c0 28.8-22.4 51.2-51.2 51.2h-921.6c-28.8 0-51.2-22.4-51.2-51.2v-630.4c0-28.8 22.4-51.2 51.2-51.2h918.4c28.8 0 51.2 22.4 51.2 51.2v630.4zM918.4 656c0-16-6.4-28.8-19.2-38.4l-198.4-169.6 201.6-169.6c12.8-9.6 19.2-25.6 19.2-38.4 0-28.8-22.4-51.2-51.2-51.2v0c-12.8 0-25.6 3.2-35.2 12.8l-211.2 182.4-73.6-64c-9.6-9.6-22.4-12.8-35.2-12.8s-25.6 3.2-35.2 12.8l-73.6 64-214.4-185.6c-9.6-9.6-22.4-12.8-35.2-12.8-28.8 0-51.2 22.4-51.2 51.2 0 16 6.4 28.8 19.2 38.4l201.6 169.6-198.4 169.6c-12.8 12.8-22.4 28.8-22.4 44.8 0 28.8 22.4 51.2 51.2 51.2 12.8 0 22.4-3.2 32-12.8l307.2-262.4c9.6-9.6 22.4-9.6 32 0l307.2 262.4c9.6 6.4 19.2 12.8 32 12.8 28.8 0 51.2-22.4 51.2-51.2v-3.2z" />
<glyph unicode="&#xe91f;" glyph-name="notifications" d="M780.8 533.333c-132.267 281.6-200.533 392.533-413.867 388.267-76.8 0-59.733 55.467-115.2 34.133-59.733-21.333-8.533-55.467-68.267-102.4-170.667-136.533-153.6-264.533-76.8-567.467 34.133-128-76.8-132.267-34.133-256 34.133-89.6 268.8-128 520.533-34.133s409.6 277.333 375.467 366.933c-42.667 123.733-132.267 55.467-187.733 170.667v0zM567.467 68.267c-221.867-81.067-409.6-34.133-413.867-12.8-12.8 38.4 72.533 162.133 328.533 256s401.067 59.733 413.867 17.067c4.267-21.333-106.667-174.933-328.533-260.267v0zM494.933 268.8c-115.2-42.667-200.533-93.867-251.733-136.533 38.4-34.133 106.667-42.667 174.933-17.067 89.6 34.133 140.8 106.667 119.467 166.4 0 0 0 0 0 0-12.8 0-29.867-4.267-42.667-12.8v0z" />
<glyph unicode="&#xe920;" glyph-name="on-moderation" d="M512 960c-284.444 0-512-227.556-512-512s227.556-512 512-512 512 227.556 512 512-227.556 512-512 512zM853.333 362.667h-341.333c-45.511 0-85.333 39.822-85.333 85.333v341.333c0 45.511 39.822 85.333 85.333 85.333s85.333-39.822 85.333-85.333v-256h256c45.511 0 85.333-39.822 85.333-85.333s-39.822-85.333-85.333-85.333z" />
<glyph unicode="&#xe921;" glyph-name="cross-pass" d="M349.867 674.133v0c0 89.6 72.533 162.133 162.133 162.133s162.133-72.533 162.133-162.133v-136.533h110.933v136.533c4.267 157.867-115.2 285.867-273.067 285.867s-277.333-128-277.333-285.867v-136.533h110.933v136.533zM878.933 490.667v-456.533c0-55.467-38.4-98.133-93.867-98.133h-541.867c-55.467 0-102.4 42.667-102.4 98.133v456.533h738.133z" />
<glyph unicode="&#xe922;" glyph-name="pay-pass" d="M349.867 674.133v0c0 89.6 72.533 162.133 162.133 162.133s162.133-72.533 162.133-162.133v-136.533h110.933v136.533c4.267 157.867-115.2 285.867-273.067 285.867s-277.333-128-277.333-285.867v-136.533h110.933v136.533zM145.067 490.667v-456.533c0-55.467 46.933-98.133 98.133-98.133h541.867c55.467 0 89.6 42.667 89.6 98.133v456.533h-729.6zM618.667 72.533c-21.333-17.067-46.933-25.6-81.067-29.867v-34.133h-51.2v29.867c-21.333 0-42.667 4.267-59.733 4.267-17.067 4.267-34.133 8.533-46.933 12.8v64c8.533-4.267 17.067-4.267 25.6-8.533s17.067-4.267 25.6-4.267c8.533 0 17.067-4.267 25.6-4.267s21.333 0 29.867 0v72.533c-12.8 0-25.6 4.267-38.4 8.533s-25.6 8.533-34.133 17.067c-8.533 8.533-21.333 17.067-25.6 25.6-8.533 12.8-8.533 25.6-8.533 42.667 0 12.8 4.267 25.6 8.533 38.4s12.8 21.333 21.333 29.867c8.533 8.533 21.333 12.8 34.133 21.333 12.8 4.267 29.867 8.533 46.933 8.533v34.133h51.2v-34.133c17.067 0 29.867-4.267 46.933-4.267 17.067-4.267 29.867-4.267 42.667-12.8v-64c-34.133 12.8-64 17.067-93.867 17.067v-72.533c12.8-4.267 25.6-4.267 38.4-8.533s25.6-8.533 34.133-17.067c8.533-8.533 17.067-17.067 25.6-25.6 8.533-12.8 8.533-25.6 8.533-42.667 4.267-25.6-4.267-46.933-25.6-64v0zM443.733 273.067c0-8.533 4.267-17.067 8.533-21.333 8.533-4.267 17.067-8.533 29.867-12.8v64c-17.067 0-25.6-4.267-34.133-8.533 0-8.533-4.267-17.067-4.267-21.333v0zM567.467 157.867c-8.533 4.267-17.067 8.533-29.867 8.533v-59.733c25.6 4.267 38.4 12.8 38.4 29.867 4.267 8.533 0 17.067-8.533 21.333v0z" />
<glyph unicode="&#xe923;" glyph-name="phone" d="M310.4 633.6l-227.2 227.2c28.8 28.8 60.8 57.6 89.6 89.6 12.8 12.8 35.2 12.8 51.2 0l179.2-179.2c12.8-12.8 12.8-35.2 0-51.2l-76.8-73.6c-6.4-3.2-9.6-9.6-16-12.8v0zM499.2 262.4c-38.4 32-73.6 67.2-108.8 102.4s-70.4 70.4-102.4 108.8c-25.6 28.8-32 73.6-19.2 112l-230.4 230.4c-54.4-57.6-48-195.2 12.8-316.8 25.6-54.4 60.8-99.2 92.8-147.2 35.2-44.8 73.6-86.4 112-128 38.4-38.4 83.2-76.8 128-112s92.8-67.2 147.2-92.8c121.6-60.8 262.4-67.2 320-12.8l-236.8 233.6c-38.4-9.6-83.2-6.4-115.2 22.4v0zM982.4 192l-179.2 179.2c-12.8 12.8-35.2 12.8-51.2 0l-73.6-73.6c-3.2-3.2-9.6-9.6-16-12.8l230.4-227.2c28.8 28.8 57.6 57.6 89.6 89.6 12.8 9.6 12.8 32 0 44.8v0z" />
<glyph unicode="&#xe924;" glyph-name="phone-email" d="M379.733 345.6c-34.133 34.133-68.267 68.267-98.133 106.667-25.6 29.867-29.867 72.533-17.067 106.667l-230.4 226.133c-51.2-55.467-46.933-187.733 12.8-307.2 25.6-51.2 55.467-98.133 89.6-140.8s68.267-85.333 106.667-123.733c38.4-38.4 81.067-76.8 123.733-106.667 42.667-34.133 89.6-64 140.8-89.6 119.467-59.733 251.733-64 307.2-12.8l-221.867 230.4c-34.133-12.8-81.067-8.533-106.667 17.067-38.4 29.867-72.533 64-106.667 93.867zM311.467 622.933l72.533 72.533c12.8 12.8 12.8 34.133 0 46.933l-170.667 174.933c-12.8 12.8-34.133 12.8-46.933 0-29.867-29.867-55.467-55.467-85.333-85.333l221.867-221.867c0 4.267 4.267 8.533 8.533 12.8zM947.2 136.533c12.8 12.8 12.8 34.133 0 46.933l-170.667 170.667c-12.8 12.8-34.133 12.8-46.933 0l-72.533-72.533c-4.267-4.267-8.533-8.533-12.8-12.8l221.867-221.867c25.6 34.133 55.467 59.733 81.067 89.6zM998.4 925.867h-473.6c-17.067 0-25.6-12.8-25.6-25.6v-324.267c0-17.067 12.8-25.6 25.6-25.6h473.6c17.067 0 25.6 12.8 25.6 25.6v320c0 17.067-12.8 29.867-25.6 29.867zM968.533 844.8c0-8.533-4.267-17.067-8.533-21.333l-102.4-89.6 102.4-89.6c4.267-4.267 8.533-12.8 8.533-21.333 0-17.067-12.8-25.6-25.6-25.6v0c-8.533 0-12.8 4.267-17.067 8.533l-110.933 93.867-38.4-34.133c-4.267-4.267-8.533-4.267-17.067-4.267-4.267 0-12.8 4.267-17.067 8.533l-38.4 34.133-106.667-98.133c-4.267-4.267-12.8-8.533-17.067-8.533-12.8 0-25.6 12.8-25.6 25.6 0 8.533 4.267 17.067 8.533 21.333l102.4 89.6-102.4 85.333c-8.533 4.267-12.8 12.8-12.8 25.6s12.8 25.6 25.6 25.6c4.267 0 12.8-4.267 17.067-4.267l157.867-136.533c4.267-4.267 12.8-4.267 17.067 0l157.867 136.533c4.267 4.267 12.8 4.267 17.067 4.267 17.067 0 25.6-12.8 25.6-25.6v0z" />
<glyph unicode="&#xe925;" glyph-name="plus" d="M512 960c-282.947 0-512-229.053-512-512s229.053-512 512-512 512 229.053 512 512-229.053 512-512 512zM719.495 388.716h-150.905v-150.905c-2.695-32.337-29.642-53.895-61.979-51.2-26.947 2.695-48.505 24.253-51.2 51.2v150.905h-164.379c-32.337 2.695-53.895 29.642-51.2 61.979 2.695 26.947 24.253 48.505 51.2 51.2h164.379v161.684c2.695 32.337 29.642 53.895 61.979 51.2 26.947-2.695 48.505-24.253 51.2-51.2v-164.379h150.905c32.337 0 56.589-26.947 53.895-59.284 0-26.947-24.253-51.2-53.895-51.2z" />
<glyph unicode="&#xe926;" glyph-name="client-list" d="M494.933 315.733c38.4 0 76.8-12.8 106.667-34.133 0 0 157.867 162.133 166.4 166.4v465.067c0 25.6-21.333 46.933-51.2 46.933h-648.533c-25.6 0-42.667-21.333-42.667-46.933v-891.733c0-25.6 17.067-46.933 42.667-46.933h315.733l-21.333 17.067c-34.133 34.133-55.467 81.067-55.467 132.267s21.333 98.133 55.467 132.267c34.133 38.4 81.067 59.733 132.267 59.733v0zM273.067 832c0 25.6 21.333 46.933 46.933 46.933h320c25.6 0 46.933-21.333 46.933-46.933v-21.333c0-25.6-21.333-46.933-46.933-46.933h-320c-25.6 0-46.933 21.333-46.933 46.933v21.333zM273.067 648.533c0 25.6 21.333 46.933 46.933 46.933h320c25.6 0 46.933-21.333 46.933-46.933v-21.333c0-25.6-21.333-46.933-46.933-46.933h-320c-25.6 0-46.933 21.333-46.933 46.933v21.333zM157.867 409.6c-29.867 0-55.467 25.6-55.467 55.467s25.6 55.467 55.467 55.467c29.867 0 55.467-25.6 55.467-55.467s-25.6-55.467-55.467-55.467v0zM157.867 593.067c-29.867 0-55.467 21.333-55.467 55.467 0 29.867 25.6 55.467 55.467 55.467s55.467-25.6 55.467-55.467c0-29.867-25.6-55.467-55.467-55.467v0zM157.867 768c-29.867 0-55.467 21.333-55.467 55.467 0 29.867 25.6 55.467 55.467 55.467s55.467-25.6 55.467-55.467c0-34.133-25.6-55.467-55.467-55.467v0zM273.067 456.533v21.333c0 25.6 21.333 46.933 46.933 46.933h320c25.6 0 46.933-21.333 46.933-46.933v-21.333c0-25.6-21.333-46.933-46.933-46.933h-320c-25.6 0-46.933 21.333-46.933 46.933v0zM550.4-38.4c17.067-17.067 34.133-25.6 55.467-25.6s42.667 8.533 55.467 25.6l307.2 307.2c29.867 29.867 34.133 81.067 4.267 115.2s-85.333 34.133-115.2 0l-217.6-217.6c-17.067-17.067-46.933-17.067-68.267 0l-25.6 25.6c-29.867 29.867-81.067 29.867-115.2 0-29.867-29.867-29.867-81.067 0-115.2l119.467-115.2z" />
<glyph unicode="&#xe927;" glyph-name="warning" d="M1017.6 64l-448 832c-12.8 19.2-32 32-57.6 32s-44.8-12.8-57.6-32l-448-832c-12.8-19.2-12.8-44.8 0-64s32-32 57.6-32h896c25.6 0 44.8 12.8 57.6 32 6.4 19.2 6.4 44.8 0 64v0zM512 96c-38.4 0-64 25.6-64 64s32 64 64 64c38.4 0 64-25.6 64-64s-25.6-64-64-64v0zM576 352c0-38.4-32-64-64-64-38.4 0-64 25.6-64 64v256c0 38.4 32 64 64 64 38.4 0 64-25.6 64-64v-256z" />
<glyph unicode="&#xe928;" glyph-name="notify" d="M512-64c55.467 0 102.4 46.933 102.4 102.4h-204.8c0-55.467 46.933-102.4 102.4-102.4v0zM844.8 243.2v281.6c0 157.867-106.667 285.867-256 324.267v34.133c0 42.667-34.133 76.8-76.8 76.8s-76.8-34.133-76.8-76.8v-34.133c-149.333-34.133-256-162.133-256-324.267v-281.6l-102.4-102.4v-51.2h870.4v51.2l-102.4 102.4z" />
<glyph unicode="&#xe929;" glyph-name="statement" d="M691.2 937.6v-201.6h198.4zM649.6 649.6c-22.4 0-41.6 19.2-41.6 44.8v265.6h-432c-38.4 0-67.2-32-67.2-67.2v-886.4c0-38.4 32-67.2 67.2-67.2h668.8c38.4 0 67.2 32 67.2 67.2v646.4h-262.4zM246.4 620.8c0 16 12.8 25.6 28.8 25.6s28.8-12.8 28.8-28.8c0-3.2 3.2-9.6 6.4-12.8 6.4-6.4 22.4-12.8 38.4-12.8 25.6 0 44.8 12.8 44.8 25.6 0 6.4-3.2 12.8-6.4 16-6.4 6.4-22.4 12.8-38.4 12.8-28.8 0-57.6 12.8-76.8 28.8-16 16-22.4 35.2-22.4 54.4 0 38.4 28.8 70.4 73.6 80v28.8c0 16 12.8 25.6 28.8 28.8 16 0 28.8-12.8 28.8-28.8l-3.2-32c16-3.2 28.8-9.6 41.6-19.2 22.4-16 32-38.4 32-60.8 0-16-12.8-25.6-28.8-25.6s-25.6 12.8-25.6 25.6c0 6.4-6.4 12.8-12.8 16-9.6 6.4-22.4 12.8-35.2 12.8-25.6 0-44.8-16-44.8-28.8 0-6.4 3.2-9.6 6.4-12.8 9.6-9.6 22.4-16 38.4-16 28.8 0 57.6-12.8 76.8-28.8 12.8-16 22.4-35.2 22.4-54.4-3.2-38.4-32-70.4-73.6-80v-28.8c-3.2-16-12.8-28.8-28.8-28.8-16 3.2-28.8 12.8-28.8 28.8v35.2c-19.2 3.2-38.4 12.8-51.2 25.6-12.8 16-19.2 35.2-19.2 54.4zM752 144h-480v70.4h480v-70.4zM752 304h-480v70.4h480v-70.4zM752 464h-208v67.2h208v-67.2z" />
<glyph unicode="&#xe92a;" glyph-name="cancel" d="M512 960c-284.444 0-512-227.556-512-512s227.556-512 512-512 512 227.556 512 512-227.556 512-512 512v0zM102.4 448c0 227.556 182.044 409.6 409.6 409.6 96.711 0 182.044-34.133 250.311-85.333l-574.578-574.578c-51.2 68.267-85.333 153.6-85.333 250.311v0zM512 38.4c-96.711 0-182.044 34.133-250.311 85.333l574.578 574.578c51.2-68.267 85.333-153.6 85.333-250.311 0-227.556-182.044-409.6-409.6-409.6v0z" />
<glyph unicode="&#xe92b;" glyph-name="info-question" d="M512 960c-281.6 0-512-230.4-512-512s230.4-512 512-512c281.6 0 512 230.4 512 512s-230.4 512-512 512v0zM550.4 162.133c-12.8-8.533-25.6-17.067-42.667-17.067s-29.867 4.267-42.667 17.067c-12.8 8.533-17.067 25.6-17.067 42.667s4.267 29.867 17.067 42.667c12.8 12.8 25.6 17.067 42.667 17.067s29.867-4.267 42.667-17.067c12.8-12.8 17.067-25.6 17.067-42.667s-8.533-29.867-17.067-42.667v0zM695.467 529.067c-8.533-17.067-21.333-29.867-34.133-42.667s-34.133-34.133-68.267-64c-8.533-8.533-17.067-17.067-21.333-21.333s-8.533-12.8-12.8-17.067c-4.267-4.267-4.267-8.533-4.267-17.067 0-4.267-4.267-12.8-8.533-25.6-4.267-25.6-21.333-42.667-46.933-42.667-12.8 0-25.6 4.267-34.133 12.8s-12.8 21.333-12.8 38.4c0 21.333 4.267 42.667 8.533 59.733 8.533 17.067 17.067 29.867 25.6 42.667 12.8 12.8 25.6 25.6 46.933 42.667 17.067 12.8 29.867 25.6 38.4 34.133s12.8 17.067 17.067 25.6c4.267 8.533 8.533 21.333 8.533 29.867 0 21.333-8.533 38.4-25.6 55.467-17.067 12.8-34.133 21.333-59.733 21.333-29.867 0-51.2-8.533-64-21.333-8.533-12.8-21.333-34.133-29.867-64s-25.6-42.667-51.2-42.667c-12.8 0-25.6 4.267-38.4 17.067-8.533 8.533-17.067 21.333-17.067 34.133 0 25.6 8.533 51.2 25.6 76.8s38.4 46.933 72.533 64c29.867 12.8 64 21.333 106.667 21.333 38.4 0 72.533-8.533 102.4-21.333s51.2-34.133 68.267-59.733c17.067-25.6 25.6-51.2 25.6-81.067 0-17.067-8.533-38.4-17.067-55.467v0z" />
<glyph unicode="&#xe92c;" glyph-name="ip-rest" d="M665.6 499.2c17.067 55.467 25.6 106.667 34.133 157.867 0 4.267 0 4.267-4.267 4.267l-256 98.133c0 0 0 0 0 0s0 0 0 0l-256-98.133c0 0-4.267-4.267-4.267-4.267 8.533-106.667 51.2-234.667 102.4-328.533s110.933-149.333 157.867-149.333c29.867 0 64 21.333 102.4 64l-59.733 59.733c-51.2 51.2-51.2 136.533 0 192 51.2 51.2 132.267 51.2 183.467 4.267v0zM439.467 106.667c-170.667 0-307.2 315.733-332.8 541.867 0 38.4 17.067 68.267 51.2 81.067l256 98.133c8.533 4.267 17.067 4.267 25.6 4.267s17.067 0 25.6-4.267l256-98.133c34.133-12.8 51.2-46.933 51.2-81.067-8.533-64-21.333-136.533-46.933-209.067l38.4-38.4 64 64c25.6 76.8 42.667 153.6 51.2 221.867 4.267 42.667-21.333 85.333-59.733 106.667l-337.067 145.067c-25.6 12.8-55.467 12.8-81.067 0l-341.333-145.067c-38.4-17.067-64-59.733-59.733-102.4 29.867-294.4 234.667-691.2 439.467-691.2 0 0 4.267 0 4.267 0-8.533 38.4 4.267 81.067 29.867 110.933-8.533-4.267-21.333-4.267-34.133-4.267v0zM866.133 209.067c25.6 25.6 110.933 110.933 136.533 136.533 29.867 29.867 29.867 72.533 0 102.4s-72.533 29.867-102.4 0l-136.533-136.533-136.533 136.533c-29.867 29.867-72.533 29.867-102.4 0s-29.867-72.533 0-102.4l136.533-136.533-136.533-136.533c-29.867-29.867-29.867-72.533 0-102.4s72.533-29.867 102.4 0c25.6 25.6 110.933 110.933 136.533 136.533l136.533-136.533c29.867-29.867 72.533-29.867 102.4 0s29.867 72.533 0 102.4l-136.533 136.533z" />
<glyph unicode="&#xe92d;" glyph-name="tool" d="M985.6 520.533l-102.4 17.067c-8.533 29.867-17.067 59.733-34.133 85.333l68.267 81.067c12.8 17.067 12.8 42.667 0 59.733l-38.4 46.933c-12.8 17.067-38.4 21.333-55.467 8.533l-85.333-55.467c-38.4 25.6-81.067 46.933-128 59.733l-17.067 102.4c-4.267 21.333-21.333 38.4-42.667 38.4h-59.733c-21.333 0-42.667-17.067-42.667-38.4l-25.6-106.667c-38.4-8.533-76.8-21.333-110.933-42.667l-81.067 59.733c-17.067 12.8-42.667 8.533-55.467-4.267l-42.667-42.667c-17.067-17.067-21.333-42.667-8.533-59.733l59.733-81.067c-17.067-34.133-34.133-72.533-42.667-110.933l-102.4-17.067c-21.333-4.267-38.4-21.333-38.4-42.667v-59.733c0-21.333 17.067-42.667 38.4-42.667l102.4-17.067c8.533-29.867 17.067-59.733 34.133-89.6l-64-81.067c-12.8-17.067-12.8-42.667 0-59.733l38.4-46.933c12.8-17.067 38.4-21.333 55.467-8.533l89.6 55.467c38.4-25.6 81.067-42.667 123.733-55.467l17.067-102.4c4.267-21.333 21.333-38.4 42.667-38.4h59.733c21.333 0 42.667 17.067 42.667 38.4l17.067 102.4c38.4 8.533 72.533 25.6 106.667 42.667l85.333-59.733c17.067-12.8 42.667-12.8 59.733 4.267l42.667 42.667c17.067 17.067 17.067 38.4 4.267 59.733l-59.733 85.333c21.333 34.133 34.133 68.267 42.667 106.667l102.4 17.067c21.333 4.267 38.4 21.333 38.4 42.667v59.733c4.267 25.6-12.8 46.933-34.133 46.933v0zM512 256c-106.667 0-192 85.333-192 192s85.333 192 192 192c106.667 0 192-85.333 192-192s-85.333-192-192-192v0z" />
<glyph unicode="&#xe92e;" glyph-name="up-arrow" d="M861.867 704l-268.8 221.867c-25.6 21.333-59.733 34.133-89.6 34.133h-311.467c-38.4 0-68.267-29.867-68.267-68.267 0-8.533 0-896 0-900.267 0-34.133 25.6-55.467 55.467-55.467 21.333 0 657.067 0 657.067 0 38.4 0 64 29.867 64 68.267v614.4c0 29.867-17.067 68.267-38.4 85.333v0zM503.467 955.733v0 0zM691.2 302.933c-4.267-8.533-8.533-8.533-17.067-8.533h-93.867v-217.6c0-12.8-12.8-25.6-25.6-25.6h-81.067c-12.8 0-25.6 12.8-25.6 25.6v217.6h-93.867c-8.533 0-17.067 4.267-17.067 8.533-4.267 8.533-4.267 12.8 4.267 21.333l153.6 221.867c4.267 4.267 12.8 8.533 17.067 8.533 8.533 0 12.8-4.267 17.067-8.533l153.6-221.867c8.533-8.533 8.533-12.8 8.533-21.333v0zM584.533 635.733c4.267-4.267 4.267-4.267 0 0 4.267-4.267 4.267-4.267 0 0v0zM588.8 635.733c-46.933 0-46.933 42.667-46.933 46.933v187.733l298.667-234.667h-251.733z" />
<glyph unicode="&#xe92f;" glyph-name="usd" d="M512 960c-284.444 0-512-227.556-512-512s227.556-512 512-512 512 227.556 512 512-227.556 512-512 512zM568.889 197.689v-34.133c0-17.067-11.378-28.444-28.444-28.444h-39.822c-17.067 0-28.444 11.378-28.444 28.444v34.133c-73.956 11.378-136.533 51.2-159.289 102.4-5.689 17.067 0 34.133 11.378 39.822l39.822 17.067c5.689 5.689 17.067 5.689 22.756 0s17.067-5.689 17.067-17.067c17.067-39.822 73.956-51.2 119.467-51.2 22.756 0 102.4 5.689 102.4 51.2 0 28.444-34.133 39.822-113.778 56.889-73.956 11.378-187.733 28.444-187.733 147.911 0 91.022 73.956 136.533 147.911 147.911v34.133c0 17.067 11.378 28.444 28.444 28.444h39.822c17.067 0 28.444-11.378 28.444-28.444v-34.133c62.578-11.378 108.089-45.511 136.533-91.022 5.689-17.067 0-34.133-11.378-39.822l-34.133-17.067c-17.067-5.689-34.133 0-39.822 11.378-17.067 28.444-62.578 45.511-96.711 45.511-39.822 0-73.956-11.378-85.333-22.756-5.689-5.689-11.378-17.067-11.378-22.756 0-17.067 17.067-34.133 102.4-45.511 79.644-17.067 199.111-34.133 199.111-159.289-5.689-91.022-79.644-142.222-159.289-153.6z" />
<glyph unicode="&#xe930;" glyph-name="user" d="M640 238.933c-25.6 4.267-25.6 76.8-25.6 76.8s72.533 76.8 89.6 179.2c42.667 0 72.533 110.933 25.6 149.333 4.267 38.4 55.467 315.733-217.6 315.733s-221.867-277.333-217.6-315.733c-42.667-38.4-17.067-149.333 25.6-149.333 17.067-102.4 89.6-179.2 89.6-179.2s0-72.533-25.6-76.8c-81.067-12.8-384-153.6-384-302.933h1024c0 153.6-302.933 290.133-384 302.933v0z" />
<glyph unicode="&#xe931;" glyph-name="utility-paper" d="M585.6 601.6c16 0 25.6 12.8 25.6 25.6 0 16-25.6 54.4-25.6 54.4s-25.6-41.6-25.6-54.4c-3.2-12.8 9.6-25.6 25.6-25.6zM851.2 960h-678.4c-38.4 0-67.2-32-67.2-67.2v-886.4c0-38.4 32-67.2 67.2-67.2h678.4c38.4 0 67.2 32 67.2 67.2v886.4c0 38.4-32 67.2-67.2 67.2zM723.2 288h54.4c12.8 0 25.6-9.6 25.6-25.6 0-12.8-9.6-25.6-25.6-25.6h-54.4c-12.8 0-25.6 9.6-25.6 25.6 3.2 12.8 12.8 25.6 25.6 25.6zM700.8 384c0 12.8 9.6 25.6 25.6 25.6h54.4c12.8 0 25.6-9.6 25.6-25.6 0-12.8-9.6-25.6-25.6-25.6h-54.4c-16 3.2-25.6 12.8-25.6 25.6zM611.2 115.2h-361.6c-12.8 0-25.6 9.6-25.6 25.6 0 12.8 9.6 25.6 25.6 25.6h361.6c12.8 0 25.6-9.6 25.6-25.6 0-12.8-12.8-25.6-25.6-25.6zM611.2 236.8h-361.6c-12.8 0-25.6 9.6-25.6 25.6 0 12.8 9.6 25.6 25.6 25.6h361.6c12.8 0 25.6-9.6 25.6-25.6 0-12.8-12.8-25.6-25.6-25.6zM611.2 361.6h-361.6c-12.8 0-25.6 9.6-25.6 25.6 0 12.8 9.6 25.6 25.6 25.6h361.6c12.8 0 25.6-9.6 25.6-25.6s-12.8-25.6-25.6-25.6zM563.2 540.8c-48 0-86.4 38.4-86.4 86.4s86.4 176 86.4 176 86.4-128 86.4-176c0-48-38.4-86.4-86.4-86.4zM745.6 700.8l3.2 156.8 70.4-227.2-67.2 19.2-3.2-156.8-64 224 60.8-16zM780.8 115.2h-54.4c-12.8 0-25.6 9.6-25.6 25.6 0 12.8 9.6 25.6 25.6 25.6h54.4c12.8 0 25.6-9.6 25.6-25.6-3.2-12.8-12.8-25.6-25.6-25.6z" />
<glyph unicode="&#xe932;" glyph-name="webmoney" horiz-adv-x="1028" d="M728.368 163.079l102.828-117.824c-21.423-17.138-42.845-29.992-66.41-44.987-74.979-42.845-160.669-66.41-252.787-66.41-282.778 0-512 231.364-512 514.142s229.222 514.142 512 514.142c81.406 0 156.385-19.28 224.937-51.414 10.711-6.427 21.423-10.711 32.134-17.138l-47.13-42.845-70.695 72.837-119.967-107.113-70.695 77.121-222.795-201.372 143.531-158.527-55.699-49.272 141.389-158.527-55.699-49.272 201.372-224.937 115.682 111.397zM972.586 482.276l55.699-62.126-59.983-55.699-55.699 62.126 59.983 55.699zM889.038 268.050l81.406-92.117-92.117-83.548-81.406 92.117 92.117 83.548zM646.962 831.464l81.406-92.117-92.117-83.548-81.406 92.117 92.117 83.548zM454.159 799.331l109.255-122.109-122.109-109.255-109.255 122.109 122.109 109.255zM721.941 471.565l-81.406 92.117 92.117 83.548 81.406-92.117-92.117-83.548zM835.481 608.669l59.983 55.699 55.699-62.126-59.983-55.699-55.699 62.126zM799.063 278.762l-81.406 92.117 92.117 83.548 81.406-92.117-92.117-83.548zM756.218 790.762l59.983 55.699 55.699-62.126-59.983-55.699-55.699 62.126zM529.138 358.025l-109.255 122.109 122.109 109.255 109.255-122.109-122.109-109.255zM614.828 145.941l-109.255 122.109 122.109 109.255 109.255-122.109-122.109-109.255z" />
<glyph unicode="&#xe933;" glyph-name="eye-visible" d="M512 796.16c-230.4 0-435.2-143.36-512-348.16 76.8-204.8 281.6-348.16 512-348.16s435.2 143.36 512 348.16c-76.8 204.8-281.6 348.16-512 348.16v0zM512 217.6c-128 0-230.4 102.4-230.4 230.4s102.4 230.4 230.4 230.4c128 0 230.4-102.4 230.4-230.4s-102.4-230.4-230.4-230.4v0zM512 586.24c-76.8 0-138.24-61.44-138.24-138.24s61.44-138.24 138.24-138.24c76.8 0 138.24 61.44 138.24 138.24s-61.44 138.24-138.24 138.24v0z" />
<glyph unicode="&#xe934;" glyph-name="arrow-right" d="M793.6 448c0-19.2-6.4-38.4-19.2-51.2l-441.6-441.6c-25.6-25.6-70.4-25.6-102.4 0-25.6 25.6-25.6 70.4 0 102.4l390.4 390.4-390.4 390.4c-25.6 25.6-25.6 70.4 0 102.4 25.6 25.6 70.4 25.6 102.4 0l441.6-441.6c12.8-12.8 19.2-32 19.2-51.2v0z" />
<glyph unicode="&#xe935;" glyph-name="logout" d="M38.4 960h635.733c21.333 0 34.133-17.067 34.133-38.4v-294.4h-72.533v260.267h-460.8l187.733-106.667c12.8-8.533 17.067-17.067 17.067-29.867v-563.2h256v200.533h72.533v-238.933c0-21.333-17.067-38.4-34.133-38.4h-294.4v-136.533c0-12.8-8.533-25.6-17.067-29.867-4.267-4.267-12.8-4.267-17.067-4.267s-12.8 0-17.067 4.267l-298.667 170.667c-12.8 4.267-25.6 17.067-25.6 34.133v776.533c-4.267 21.333 12.8 34.133 34.133 34.133zM593.067 456.533c-29.867 0-51.2 21.333-51.2 51.2s21.333 51.2 51.2 51.2h192v93.867c0 8.533 4.267 17.067 12.8 21.333s17.067 4.267 21.333 0l200.533-145.067c4.267-4.267 8.533-12.8 8.533-17.067 0-8.533-4.267-12.8-8.533-17.067l-200.533-149.333c-4.267-4.267-8.533-4.267-12.8-4.267s-8.533 0-8.533 4.267c-8.533 4.267-12.8 12.8-12.8 21.333v93.867l-192-4.267z" />
<glyph unicode="&#xe936;" glyph-name="transfer-arrow-v" d="M516.267 260.267c-4.267-12.8-4.267-25.6 4.267-38.4l217.6-273.067c8.533-8.533 21.333-12.8 29.867-12.8 12.8 0 21.333 4.267 29.867 12.8l217.6 273.067c8.533 12.8 12.8 25.6 4.267 38.4-4.267 12.8-17.067 21.333-34.133 21.333h-85.333v298.667c0 17.067-17.067 34.133-34.133 34.133h-200.533c-21.333 0-34.133-17.067-34.133-34.133v-298.667h-85.333c-12.8 0-21.333-8.533-29.867-21.333v0zM507.733 635.733c4.267 12.8 4.267 25.6-4.267 34.133l-217.6 273.067c-8.533 12.8-21.333 17.067-29.867 17.067-12.8 0-21.333-4.267-29.867-12.8l-217.6-273.067c-8.533-12.8-12.8-25.6-4.267-38.4 4.267-12.8 17.067-21.333 34.133-21.333h85.333v-298.667c0-17.067 17.067-34.133 34.133-34.133h200.533c21.333 0 34.133 17.067 34.133 34.133v298.667h85.333c12.8 0 21.333 8.533 29.867 21.333v0z" />
<glyph unicode="&#xe937;" glyph-name="paper" d="M512-64h341.333c34.133 0 64 29.867 64 64v896c0 34.133-29.867 64-64 64h-456.533v-21.333c0-4.267 0-4.267 0-8.533v-174.933c0-51.2-38.4-89.6-89.6-89.6h-174.933c0 0-4.267 0-4.267 0h-21.333v-669.867c0-29.867 29.867-59.733 64-59.733h341.333zM524.8 153.6h-221.867c-17.067 0-29.867 12.8-29.867 29.867s12.8 29.867 29.867 29.867h221.867c17.067 0 29.867-12.8 29.867-29.867s-12.8-29.867-29.867-29.867v0zM746.667 307.2h-443.733c-17.067 0-29.867 12.8-29.867 29.867s12.8 29.867 29.867 29.867h448c17.067 0 29.867-12.8 29.867-29.867-4.267-17.067-17.067-29.867-34.133-29.867v0zM302.933 529.067h448c17.067 0 29.867-12.8 29.867-29.867s-12.8-29.867-29.867-29.867h-448c-17.067 0-29.867 12.8-29.867 29.867s12.8 29.867 29.867 29.867v0zM132.267 704h174.933c29.867 0 51.2 25.6 51.2 51.2v174.933c4.267 17.067-8.533 29.867-21.333 29.867-8.533 0-17.067-4.267-21.333-8.533l-200.533-200.533c-17.067-17.067-4.267-46.933 17.067-46.933v0z" />
<glyph unicode="&#xe938;" glyph-name="pdf" d="M209.676 555.276c-14.629 0-24.381 0-29.257-4.876v-102.4c4.876 0 14.629 0 24.381 0 39.010 0 63.39 19.505 63.39 53.638s-19.505 53.638-58.514 53.638zM507.124 550.4c-19.505 0-29.257 0-34.133-4.876v-219.429c4.876 0 19.505 0 24.381 0 68.267 0 112.152 39.010 112.152 117.029 4.876 73.143-39.010 107.276-102.4 107.276zM1024 311.467v273.067c0 53.638-43.886 97.524-97.524 97.524h-828.952c-53.638 0-97.524-43.886-97.524-97.524v-273.067c0-48.762 39.010-92.648 87.771-97.524h4.876c0 0 4.876 0 4.876 0h828.952c0 0 4.876 0 4.876 0v0h4.876c48.762 4.876 87.771 48.762 87.771 97.524zM316.952 423.619c-24.381-24.381-63.39-34.133-112.152-34.133-9.752 0-19.505 0-24.381 0v-121.905h-78.019v336.457c24.381 4.876 58.514 4.876 102.4 4.876 48.762 0 82.895-9.752 102.4-29.257 19.505-14.629 34.133-43.886 34.133-78.019 4.876-29.257-4.876-58.514-24.381-78.019zM638.781 311.467c-34.133-29.257-87.771-43.886-156.038-43.886-39.010 0-68.267 4.876-87.771 4.876v331.581c29.257 4.876 63.39 4.876 102.4 4.876 63.39 0 107.276-9.752 136.533-34.133 34.133-24.381 58.514-68.267 58.514-126.781 0-63.39-19.505-112.152-53.638-136.533zM950.857 545.524h-131.657v-78.019h121.905v-63.39h-121.905v-136.533h-78.019v341.333h204.8v-63.39z" />
</font>
</defs>
</svg>
